<svg xmlns="http://www.w3.org/2000/svg" width="999.732" height="679.941" version="1.0"><g style="stroke:none"><path d="M608.308 562.519c-1.046-.727-3.364-1.64-5.151-2.03-1.788-.388-3.25-1.072-3.25-1.52s-2.238-2.52-4.973-4.605l-4.974-3.793 4.103-2.33c2.86-1.624 4.47-2.025 5.315-1.324 1.614 1.34 2.529.275 2.529-2.942 0-1.449.551-3.185 1.225-3.859.958-.957.962-1.645.02-3.153-.76-1.217-.843-2.152-.225-2.534.547-.338.98-5.657.98-12.047 0-10.496.154-11.44 1.864-11.44 1.051 0 3.094 1.774 4.684 4.069 1.551 2.238 4.11 4.736 5.686 5.552 2.915 1.507 6.766 1.07 6.766-.768 0-.6 1.196-.75 2.93-.369 2.36.518 3.156.223 4.086-1.515.757-1.414 1.803-1.989 3.033-1.667 1.032.27 2.404-.143 3.047-.918.929-1.12.617-1.921-1.515-3.897-1.476-1.368-3.336-2.488-4.133-2.488a1.454 1.454 0 0 1-1.448-1.45c0-.798-2.226-2.471-4.947-3.72-5.59-2.564-6.908-5.256-4.695-9.588.77-1.508 1.732-4.276 2.136-6.15.622-2.888.373-3.689-1.63-5.229-1.315-1.011-1.775-1.828-1.036-1.84 1.834-.031 9.134-8.027 9.339-10.228.091-.987.204-2.582.25-3.545.114-2.402 3.425-5.524 5.154-4.86.78.299 1.307 1.545 1.173 2.77-.171 1.56.714 2.84 2.964 4.283 3.8 2.437 3.71 3.87-.29 4.563-2.746.476-2.936.82-3.223 5.836-.274 4.788-.02 5.577 2.5 7.743 3.554 3.057 4.69 3.031 7.013-.158l1.874-2.573 3.46 1.823c1.901 1.003 3.62 1.91 3.817 2.016s-.512 1.456-1.577 3c-2.458 3.564-6.259 15.025-6.071 18.307.213 3.721 1.498 4.86 7.433 6.585 6.024 1.752 6.145 3.106.36 4.03-3.734.598-5.645 2.54-4.431 4.503.318.515-.39 2.94-1.575 5.386-2.696 5.57-2.317 7.687 1.578 8.804 2.232.64 3.315 1.735 3.993 4.035.972 3.298 2.275 3.707 7.523 2.363 2.119-.543 2.845-.192 3.975 1.92 1.297 2.424 1.182 2.762-1.858 5.479-3.364 3.006-4.944 3.307-15.347 2.93-3.297-.12-5.925.259-6.33.913-.973 1.575-4.695-3.36-3.967-5.258 1.678-4.37-5.72-2.226-8.082 2.344-1.463 2.828-1.468 3.34-.06 5.49 1.885 2.877.536 4.066-2.652 2.34-3.206-1.736-9.96-1.658-11.854.136-2.135 2.023-3.268 2.142-5.516.578M426.726 534.363c-1.475-.778-2.968-2.315-3.318-3.418-.35-1.102-1.258-2.004-2.019-2.004-.76 0-1.841-.787-2.402-1.75-.97-1.666-1.02-1.666-1.05 0-.037 2.121.089 2.116-4.496.2-2.508-1.048-3.53-2.02-3.153-3 .306-.797.008-1.518-.662-1.602-2.343-.293-3.24-.544-6.034-1.692-1.548-.635-3.348-1.192-4-1.237-2.372-.163 4.986-2.691 11.555-3.97 5.058-.984 6.892-1.789 7.347-3.223.499-1.57 1.212-1.798 4-1.275 1.865.35 5.21.091 7.434-.575 5.744-1.721 6.546-.57 6.191 8.892-.158 4.213-.66 7.902-1.115 8.197s-1.125 1.489-1.488 2.654-1.436 2.815-2.385 3.667c-1.507 1.353-2.062 1.37-4.405.136" style="fill:#b9b9b9;fill-opacity:1;stroke:none;stroke-opacity:1;opacity:1;fill-rule:nonzero;stroke-linejoin:miter;stroke-width:2;stroke-miterlimit:4;stroke-dasharray:none"/><path d="M436.907 526.997c0-.98.432-4.06.96-6.845.75-3.959.638-5.71-.518-8.027l-1.479-2.963-8.678.246c-7.533.214-8.794.506-9.556 2.215-.695 1.557-2.942 2.346-10.747 3.772-9.118 1.667-9.991 1.68-11.496.175-.896-.896-2.333-1.629-3.193-1.629-1.915 0-6.264-4.44-8.293-8.467-.825-1.638-2.593-3.52-3.928-4.186-2.462-1.225-4.972-4.783-5.037-7.137-.038-1.39-4.05-7.494-5.285-8.043-.413-.183-.75-1.395-.75-2.693 0-1.297-.964-3.993-2.142-5.99-2.003-3.394-2.033-3.737-.467-5.306.922-.923 3.75-2.128 6.287-2.678s5.11-1.816 5.717-2.814c2.478-4.07 9.306-10.686 11.027-10.686 1.013 0 3.35-.932 5.195-2.072 4.195-2.593 6.458-1.972 12.3 3.378l4.417 4.044 1.349-4.626c.742-2.544 1.792-4.899 2.333-5.233 1.464-.905 1.19-4.427-.474-6.09-1.919-1.92-.923-4.713 1.248-3.498 2.332 1.305 5.948-.723 6.711-3.763.518-2.064.088-3.096-2.06-4.944-2.544-2.188-2.644-2.576-1.578-6.132 1.5-5.006 1.63-4.512-2.364-8.933l-3.501-3.875 1.601-7.093c1.686-7.463 2.753-8.56 8.4-8.63 2.006-.026 2.566-.605 2.831-2.924.182-1.59-.222-3.232-.896-3.65-2.188-1.352-.184-4.12 2.733-3.776 2.724.323 4.622 2.817 2.144 2.817-1.238 0-2.894 4.566-4.488 12.378-.444 2.173-.25 2.765.795 2.42 1.472-.488 3.28-3.49 4.914-8.156.837-2.391 1.246-2.656 2.497-1.618.95.79 1.162 1.649.58 2.36-.504.614-1.23 3.658-1.615 6.764l-.699 5.649 3.143.69c4.01.88 6.062-.767 6.062-4.868 0-4.018 2.379-5.576 6.75-4.42 3.841 1.015 3.884 1.356 1.12 8.935-1.995 5.474-2.317 5.824-5.14 5.603-1.698-.133-3.205.309-3.455 1.013-.243.688.27 1.25 1.142 1.25.87 0 1.583.442 1.583.981 0 1.134-3.584 2.102-6.5 1.757-1.416-.168-1.914.274-1.706 1.512.161.963-.206 1.75-.818 1.75-.622 0-.855.807-.53 1.833.36 1.134-.184 2.525-1.429 3.652-1.106 1-2.77 4.226-3.697 7.168-.927 2.94-2.278 5.347-3.003 5.347-2.201 0-1.47 2.817.93 3.579 1.234.392 2.737 1.386 3.339 2.208.847 1.16 1.975 1.308 5.004.662 2.15-.46 5.935-.874 8.41-.921 15.06-.29 15.478-.376 20.336-4.161 5.247-4.088 6.138-7.723 2.664-10.867-2.615-2.366-2.523-3.304.458-4.662 2.004-.914 3.404-.713 7.59 1.088 5.946 2.558 8.662 2.05 13.691-2.555a680 680 0 0 1 6.32-5.699l3.184-2.828 3.176 3.078c1.747 1.693 3.91 3.078 4.809 3.078 1.353 0 1.479.536.737 3.123-.493 1.718-1.692 4.305-2.666 5.75-1.164 1.728-1.663 4.03-1.457 6.724.284 3.73.045 4.208-2.678 5.335-1.695.703-3.241 2.24-3.57 3.551-.32 1.272-2.219 4.27-4.22 6.665-5.29 6.325-5.911 8.103-3.903 11.168 1.602 2.445 1.577 2.7-.557 5.586-1.732 2.343-3.268 3.163-6.825 3.642-6.262.844-10.706 2.29-12.064 3.927-.625.752-4.16 1.877-7.856 2.501-7.796 1.315-8.294 1.583-9.952 5.353-1.476 3.357-.885 4.677 2.092 4.67 1.205-.002 4.289.747 6.853 1.666 4.387 1.573 4.605 1.821 3.699 4.206-.645 1.695-.583 4.124.186 7.329 1.029 4.29 1.39 4.733 3.442 4.218 1.261-.317 2.587-.099 2.948.484 1.062 1.719-3.42 6.85-6.527 7.47-1.577.316-5.372 2.615-8.436 5.11-4.25 3.462-6.123 4.398-7.905 3.95-1.285-.322-3.963-.137-5.953.413-3.176.877-3.616.781-3.616-.785" style="fill:#b9b9b9;fill-opacity:1;stroke:none;stroke-opacity:1;opacity:1;fill-rule:nonzero;stroke-linejoin:miter;stroke-width:2;stroke-miterlimit:4;stroke-dasharray:none"/><path d="M527.16 488.8c-.386-1.473-1.449-1.802-5.614-1.738-2.827.044-6.102.688-7.279 1.43-1.848 1.167-2.346 1.119-3.657-.35-.835-.935-1.672-3.05-1.86-4.7s-1.018-3.306-1.843-3.68c-2.652-1.202-6.814-.864-8.357.68-2.31 2.31-5.532 1.838-6.825-1-.627-1.376-1.404-2.507-1.729-2.516-.324-.008-1.204-.405-1.957-.881-1.107-.702-.93-1.457.924-3.965 2.152-2.91 2.19-3.21.617-4.947-2.465-2.724-2.102-4.21 2.339-9.583 2.206-2.67 4.27-5.886 4.587-7.147.316-1.26 1.847-2.818 3.4-3.462 3.011-1.247 4.288-4.184 3.361-7.73-.348-1.33.207-3.258 1.436-4.983 1.101-1.547 2.16-3.932 2.353-5.3.431-3.055 3.843-3.806 7.058-1.554 1.23.862 3.825 1.57 5.765 1.572 2.658.004 4.5.898 7.47 3.625 2.168 1.991 5.245 3.994 6.839 4.45 2.444.702 3.29.41 5.416-1.874 2.767-2.971 8.376-3.762 9.364-1.32.308.763 3.346 2.242 6.75 3.287 3.712 1.14 6.189 2.457 6.189 3.292 0 .766.675 2.068 1.5 2.893 1.333 1.333 1.326 1.674-.07 3.069-1.16 1.16-2.056 1.309-3.434.571-2.9-1.552-4.996-1.183-4.996.88 0 1.033-.675 2.438-1.5 3.122-.825.685-1.5 2.079-1.5 3.098 0 1.525-.53 1.746-3 1.252q-3.001-.6-3 .602c0 .763-1.27 1.092-3.477.902-4.553-.392-6.699 2.225-5.86 7.146.33 1.925.937 3.95 1.352 4.5s1.064 2.451 1.443 4.224c.444 2.075 2.444 4.801 5.616 7.653 5.449 4.9 6.116 6.623 2.56 6.623-1.3 0-3.45.854-4.776 1.898-3.411 2.683-14.901 2.654-15.605-.04" style="fill:#b9b9b9;fill-opacity:1;stroke:none;stroke-opacity:1;opacity:1;fill-rule:nonzero;stroke-linejoin:miter;stroke-width:2;stroke-miterlimit:4;stroke-dasharray:none"/><path d="M553.116 487.75c-.665-.664-1.215-1.681-1.222-2.259s-2.445-3.183-5.418-5.79c-3.658-3.208-5.631-5.795-6.103-8-.383-1.793-1.051-3.71-1.484-4.26-1.09-1.384-1.421-5.674-.585-7.59.435-.997 2.07-1.64 4.391-1.728 2.034-.076 3.845-.58 4.025-1.121.18-.54 1.646-.719 3.257-.397 2.46.492 2.93.265 2.93-1.416 0-1.102.675-2.563 1.5-3.248.825-.684 1.5-2.137 1.5-3.229 0-1.498.43-1.808 1.75-1.264 4.005 1.649 5.115 1.555 7.125-.603 2.108-2.263 2.109-2.27.119-4.124-2.32-2.162-2.273-1.917-1.024-5.202l.971-2.553 4.678 2.488c5.603 2.979 7.38 3.123 7.38.598 0-2.588 3.4-6.6 4.839-5.71.64.394 1.162 1.398 1.162 2.23s1.146 3.468 2.546 5.858l2.546 4.345-2.793 2.59c-1.537 1.425-2.945 2.138-3.13 1.584-.813-2.44-3.835-.82-5.119 2.742-.743 2.063-2.402 5.418-3.686 7.457s-2.096 4.33-1.803 5.09c.352.919-1.168 2.19-4.515 3.78-4.754 2.257-5.046 2.615-5.046 6.19 0 2.452-.531 4-1.5 4.372-.825.316-1.5 1.652-1.5 2.968s-.346 2.393-.768 2.393-1.454 1.13-2.291 2.51c-1.19 1.962-1.786 2.245-2.732 1.3M900.219 473.457c-10.549-12.07-11.907-13.287-13.356-11.976-.888.803-3.266 1.46-5.285 1.46h-3.671v-6.44c0-3.543-.45-6.72-1-7.06-2.425-1.498-.945-6.136 3.25-10.186 7.288-7.036 21.576-12.765 36.88-14.788 2.68-.355 7.104-2.12 10.5-4.19 3.229-1.969 7.895-4.12 10.37-4.783 7.46-1.995 25.344.301 30.243 3.883 1.031.754 2.057 3.447 2.538 6.665.672 4.487.394 6.666-1.644 12.9l-2.453 7.5-19.924 15c-10.959 8.25-23.25 17.351-27.315 20.225l-7.39 5.226z" style="fill:#b9b9b9;fill-opacity:1;stroke:none;stroke-opacity:1;opacity:1;fill-rule:nonzero;stroke-linejoin:miter;stroke-width:2;stroke-miterlimit:4;stroke-dasharray:none"/><path d="M876.065 453.941c0-1.375.227-1.937.504-1.25.278.688.278 1.813 0 2.5-.277.688-.504.125-.504-1.25M593.466 443.41c-1.068-.808-2.78-1.469-3.806-1.469-1.286 0-2.64-1.697-4.373-5.48-1.38-3.015-2.963-5.762-3.519-6.105-1.395-.863-5.861 3.526-5.861 5.76 0 2.578-2.97 2.3-6.975-.656-3.478-2.566-6.025-2.071-6.025 1.171 0 1.584-2.244 1.192-7.404-1.292-1.597-.769-3.51-1.398-4.25-1.398s-1.346-.675-1.346-1.5c0-1.107-1.159-1.5-4.427-1.5-3.532 0-4.826.506-6.394 2.5-2.778 3.53-5.297 3.122-10.223-1.658-3.63-3.523-4.966-4.181-8.744-4.309-2.948-.1-4.89-.74-5.73-1.887-.91-1.244-2.009-1.551-3.876-1.083-2.923.734-3.272-.167-1.206-3.117 2.1-2.998 3.135-13.096 1.54-15.019-1.07-1.288-.993-2.067.447-4.504 1.97-3.336 1.476-6.228-1.647-9.642-2.21-2.414-3.74-2.173-3.74.59 0 2.121-5.624 6.547-6.506 5.12-.984-1.592-2.49-1.141-2.538.76-.027 1.062-.794.331-1.952-1.86-1.061-2.008-3.215-4.15-4.857-4.83-5.03-2.083-7.386-5.447-7.898-11.278-.275-3.14-1.1-5.785-2.033-6.522-.864-.682-1.378-1.38-1.143-1.553 3.023-2.216 6.291-3.71 8.142-3.723 6.8-.045 11.014-2.578 19.822-11.913 8.565-9.076 8.735-9.353 8.202-13.327-.503-3.753-.385-4.016 1.572-3.504 2.435.637 3.741-.608 4.717-4.496.379-1.51 1.09-2.745 1.58-2.745s1.86-.968 3.044-2.151l2.152-2.152 2.82 3.402c2.432 2.932 2.826 4.278 2.849 9.747.02 4.867.53 7.052 2.184 9.374 1.872 2.63 2.143 4.299 2.052 12.655-.131 12.144.157 13.125 3.858 13.125 1.613 0 2.933-.498 2.933-1.108 0-1.317 5.322-.239 5.833 1.182.184.51 1.034.926 1.89.926 1.738 0 4.196 2.792 4.245 4.822.018.727-.643 1.996-1.468 2.821-1.825 1.825-1.947 4.778-.25 6.047.687.514 4.768 2.008 9.069 3.32 6.474 1.975 7.965 2.15 8.668 1.012 1.304-2.11 5.03.8 6.396 4.998.982 3.016 1.66 3.531 5.617 4.264 2.475.459 7.818.613 11.874.343 6.685-.445 7.735-.252 11.25 2.074 4.233 2.801 4.705 3.767 2.293 4.693-.87.334-1.382 1.17-1.135 1.857.656 1.83-1.113 4.75-2.876 4.75-.976 0-1.239.45-.73 1.25.436.687.822 1.474.858 1.75.035.274.423 1.552.86 2.838.616 1.807.32 2.673-1.298 3.807-2.474 1.733-2.67 4.09-.588 7.062 1.388 1.982 1.343 2.205-.56 2.81-1.69.535-1.951 1.19-1.43 3.569.632 2.871.578 2.913-3.689 2.882-2.38-.018-5.203-.693-6.27-1.5M460.446 427.985c-1.556-1.72-2.062-7.518-.916-10.504.343-.894 2.39-2.526 4.549-3.627 2.159-1.102 4.177-2.658 4.484-3.458s.984-1.455 1.506-1.455c1.514 0 9.66-3.902 10.296-4.932 1.25-2.023 9.143 7.924 8.212 10.35-.32.834.468 2.098 1.89 3.03 3.05 1.999 3.132 4.336.19 5.466-1.238.475-3.491 2.264-5.008 3.975-3.245 3.662-6.302 3.948-12.43 1.166-4.05-1.839-4.306-1.842-7.711-.106-3.314 1.69-3.614 1.695-5.062.095" style="fill:#b9b9b9;fill-opacity:1;stroke:none;stroke-opacity:1;opacity:1;fill-rule:nonzero;stroke-linejoin:miter;stroke-width:2;stroke-miterlimit:4;stroke-dasharray:none"/><path d="M622.464 405.99c-4.472-3.87-7.344-4.925-8.976-3.299-.414.413-2.176.776-3.917.807s-6.764.386-11.164.787-9.987.37-12.415-.07c-3.822-.693-4.566-1.246-5.533-4.118-1.235-3.67-5.038-7.099-7.909-7.133-1.3-.016-1.672.46-1.239 1.589.404 1.05.18 1.443-.643 1.128-1.835-.702-12.045-4.001-13.511-4.366-1.434-.357-1.73-5.374-.317-5.374.512 0 1.213-.884 1.556-1.964.737-2.322-3.276-8.331-5.097-7.632-.783.3-1.192-.748-1.192-3.057 0-3.209.208-3.461 2.4-2.91 1.32.33 2.425.255 2.455-.168.03-.422.169-2.63.31-4.904s1.055-5.357 2.034-6.85c1.604-2.45 2.186-2.654 5.946-2.09 3.538.53 4.465.281 6.134-1.65 2.403-2.78 2.105-5.142-1.191-9.464-1.942-2.546-2.357-3.939-1.806-6.058 1.215-4.672.881-8.194-.971-10.24-1.716-1.896-1.686-1.996.904-2.98 1.473-.56 4.12-2.37 5.882-4.021s3.975-3.004 4.918-3.007c2.03-.005 3.785-2.914 3.785-6.27 0-2.544 3.517-5.158 6.144-4.566 1.644.37 16.482-10.602 17.887-13.226 1.053-1.968.34-2.943-2.152-2.943-2.043 0-2.748-2.9-3.133-12.881l-.246-6.382-3.5-.276c-1.925-.152-4.003.138-4.617.644-.714.587-1.571.373-2.373-.592-.69-.832-2.502-1.513-4.026-1.513-2.813 0-3.984-1.493-3.984-5.081 0-1.198-.693-1.919-1.845-1.919-3.132 0-5.155-3.263-5.155-8.316 0-4.643-.014-4.662-3.898-5.283-3.823-.612-3.881-.684-3-3.756 1.243-4.335 1.17-4.645-1.114-4.645-1.779 0-1.94-.452-1.387-3.903.81-5.07-2.027-13.913-5.34-16.64l-2.482-2.045 4.079-2.699c3.516-2.327 4.427-2.54 6.61-1.545 2.457 1.12 3.057 2.835 2.65 7.579-.106 1.235.343 3.247.998 4.471s1.136 3.71 1.067 5.526.763 4.88 1.847 6.81c1.083 1.929 2.002 4.731 2.04 6.227.063 2.42.165 2.499.93.72.888-2.068 1.038-1.774 1.4 2.75.055.687.852 1.812 1.77 2.5.92.689 1.968 2.601 2.33 4.25.506 2.305 1.208 3 3.032 3 3.165 0 7.617 1.965 9.468 4.18.892 1.067 3.526 2.045 6.5 2.413 3.522.436 5.597 1.32 7.021 2.992 1.716 2.014 3.228 2.458 10 2.936 11.239.792 10.898.7 13.564 3.648 3.284 3.629 6.564 4.51 7.367 1.98.582-1.83 4.396-3.635 5.452-2.578 1.368 1.367-2.277 15.608-5.74 22.428-2.094 4.125-4.33 9.3-4.967 11.5-3.387 11.684-4.198 15.139-4.212 17.932-.009 1.688-.452 3.743-.985 4.568-.862 1.334-.968 1.334-.954 0 .065-6.226 2.43-16.938 5.408-24.493 1.95-4.946 3.546-9.45 3.546-10.01 0-.558-.947-1.607-2.105-2.33-1.183-.739-1.807-.833-1.426-.216.374.604.365 2.53-.02 4.28l-.698 3.18-1.786-2.205c-2.231-2.756-3.576-2.801-4.27-.144-.33 1.261.012 2.273.883 2.607.782.3 1.422.974 1.422 1.497s-.419.694-.931.377-1.214-.118-1.559.441c-.345.56-.116 1.016.51 1.016.749 0 .91 1.043.47 3.041-.406 1.851-.197 3.608.534 4.489.95 1.144.896 1.564-.26 2.007-1.1.423-1.36 1.846-1.053 5.762.387 4.938.325 5.1-1.228 3.201-1.544-1.887-1.608-1.645-1.15 4.326.44 5.734 1.667 9.983 1.667 5.77 0-1.571.15-1.59 1.552-.186 1.263 1.263 1.358 2.254.506 5.321-.576 2.073-1.117 5.57-1.203 7.77l-.155 4-.7-4.5c-.492-3.167-.744-.756-.85 8.139-.095 7.974.435 15.723 1.435 20.994 1.328 7 1.384 9.298.35 14.176-.709 3.337-1.552 5.31-1.976 4.624-.708-1.146-.93-.694-2.606 5.316-.268.963-.008 1.75.58 1.75.587 0 1.133-.787 1.214-1.75.08-.962.453.95.827 4.25s.586 6.135.47 6.3c-.115.164-2.314-1.523-4.887-3.75M406.769 399.937c-.902-.534-1.95-2.209-2.33-3.723s-1.217-3.088-1.861-3.497c-1.96-1.246-5.604-.866-8.237.86-3.337 2.186-4.323.94-1.574-1.987 1.813-1.93 2.105-3.122 1.654-6.746-.302-2.421-.77-5.11-1.042-5.973-.568-1.811-10.506-5.237-12.723-4.387-.948.364-1.681-.175-2.024-1.486-.325-1.243-1.36-2.057-2.615-2.057-1.483 0-2.79-1.407-4.574-4.929-1.374-2.71-2.957-5.212-3.517-5.559-.56-.346-1.02-1.853-1.02-3.348s-.643-3.638-1.43-4.762-1.725-4.916-2.084-8.427c-.724-7.067-2.958-12.23-6.875-15.887-2.406-2.245-2.866-2.327-6.67-1.188-4.357 1.306-6.94.355-6.94-2.555 0-2.9-5.366-11.968-9.116-15.405-2.136-1.958-3.884-4.299-3.884-5.202 0-.904-.506-2.754-1.125-4.112-.747-1.64-.885-5.35-.41-11.047l.714-8.579h5.364c5.28 0 10.251-1.479 11.692-3.48.404-.56.741-3.087.75-5.615.01-3.302.574-5.1 2.004-6.394 1.59-1.44 1.865-2.573 1.372-5.655-.558-3.49-.408-3.856 1.577-3.856 1.206 0 3.112-.491 4.234-1.092 1.625-.87 1.916-1.718 1.427-4.163-.643-3.215 1.444-6.745 3.989-6.745.702 0 1.576-.94 1.94-2.09.64-2.014.775-1.98 3.62.931 1.626 1.663 4.288 3.316 5.916 3.673 1.669.367 4.07 2.107 5.508 3.992 3.038 3.983 8.206 6.236 9.08 3.958.67-1.745 3.49-1.922 5.092-.32.86.86 1.86.849 4.016-.044 3.595-1.49 7.789-.097 8.74 2.901 1.167 3.675 4.578 1.996 9.118-4.488 3.413-4.873 4.875-6.13 7.856-6.749 2.11-.438 4.453-.338 5.529.238 1.026.55 3.18.998 4.786.998 2.23 0 4.108 1.255 7.94 5.308 2.762 2.92 5.794 6.804 6.74 8.63 1.623 3.14 1.623 3.532 0 7.129-1.251 2.777-1.532 5.029-1.037 8.329.566 3.772.254 5.281-1.877 9.099-2.715 4.863-3.229 7.97-1.495 9.042.675.418.44 1.109-.648 1.904-2.208 1.614-1.492 4.432 2.937 11.56 5.21 8.385 7.033 10 11.286 10 2.052 0 4.527.741 5.542 1.66 2.265 2.05 2.427 1.888 4.76-4.74 1.04-2.95 2.266-5.486 2.726-5.638 1.527-.5 4.753 9.122 5.16 15.39l.4 6.171-4.362.627c-2.398.345-6.836.356-9.861.026-16.249-1.775-17.963-1.76-18.68.168-.873 2.35-9.802 11.335-11.262 11.335-1.58 0-2.898 4.023-3.253 9.92-.198 3.305-.753 5.08-1.586 5.08-.705 0-1.583.788-1.952 1.75-.368.963-1.492 2.425-2.498 3.25-2.46 2.02-3.953 10.106-4.462 24.176-.266 7.362-.863 12.03-1.615 12.634-1.923 1.547-7.056 2.236-8.83 1.186" style="fill:#b9b9b9;fill-opacity:1;stroke:none;stroke-opacity:1;opacity:1;fill-rule:nonzero;stroke-linejoin:miter;stroke-width:2;stroke-miterlimit:4;stroke-dasharray:none"/><path d="M300.907 317.941c0-.55-.477-1-1.06-1-.582 0-.78.45-.44 1s.816 1 1.059 1 .44-.45.44-1" style="fill:#00c100;fill-opacity:1;stroke:none;stroke-opacity:1;opacity:1;fill-rule:nonzero;stroke-linejoin:miter;stroke-width:2;stroke-miterlimit:4;stroke-dasharray:none"/><path d="M539.813 374.691c-.052-.687-.014-5.446.084-10.574.163-8.606-.03-9.639-2.518-13.397-2.336-3.53-2.633-4.82-2.227-9.676.43-5.16.212-5.92-2.766-9.603-2.808-3.473-3.2-4.658-2.982-9 .139-2.75.568-5.75.954-6.669.408-.972-.021-2.77-1.028-4.307-1.655-2.527-1.643-2.751.293-5.33 1.931-2.575 2.353-2.678 9.561-2.34 6.845.321 7.646.158 8.673-1.76.986-1.843.799-2.239-1.475-3.103-1.433-.545-3.203-.99-3.933-.99s-1.587-.676-1.904-1.5c-.316-.826-1.516-1.5-2.666-1.5-1.291 0-1.825-.43-1.396-1.124.4-.647-1.54-3.176-4.573-5.965-4.672-4.295-5.2-5.18-4.668-7.838.33-1.648.164-3.265-.368-3.594s-.967-1.607-.967-2.84c0-1.31-1.899-4.196-4.567-6.942l-4.568-4.699 6.302-5.41c5.154-4.424 6.638-5.228 8.153-4.418 1.018.546 1.927.843 2.019.66s1.179-1.775 2.414-3.54c2.989-4.27 3.085-11.223.191-13.841-1.693-1.533-2.396-1.648-3.986-.655-2.724 1.701-3.958 1.5-3.958-.646 0-3.059 5.321-7.777 9.543-8.462 4.934-.8 6.481-2.447 7.177-7.636.744-5.548 3.955-7.363 7.38-4.171 3.047 2.838 4.25 2.68 7.309-.953 2.46-2.924 2.672-2.989 4.33-1.33 1.194 1.193 1.368 1.868.552 2.14-5.235 1.745-8.224 7.945-4.322 8.965 2.51.657 6.43 10.7 5.572 14.28-1.16 4.84-1.03 5.383 1.449 5.992 1.684.414 2.088.86 1.25 1.378-.682.422-1.24 2.09-1.24 3.707 0 2.38.43 2.944 2.25 2.957 3.762.025 4.907 1.48 5.593 7.1.61 4.999.89 5.453 3.907 6.341 2.557.753 3.253 1.5 3.265 3.5.024 3.87 1.31 5.25 4.217 4.521 1.954-.49 2.913-.108 4.146 1.652 1.254 1.79 1.867 2.025 2.813 1.08.665-.665 2.677-1.21 4.471-1.21h3.263l.287 9.25c.274 8.802.4 9.266 2.596 9.578 1.269.18 2.131.854 1.916 1.5-.664 1.994-15.13 12.668-16.822 12.413-2.924-.44-6.902 2.439-6.902 4.994 0 3.358-1.756 6.265-3.785 6.266-.943 0-3.484 1.576-5.647 3.5-2.162 1.925-4.764 3.5-5.781 3.5-2.901 0-3.284 2.776-.674 4.89 2.184 1.769 2.262 2.204 1.266 7.067-1.007 4.918-.917 5.38 1.78 9.103 1.563 2.157 2.84 4.408 2.84 5.002 0 2.333-3.016 3.937-7.405 3.937-5.435 0-7.548 2.415-8.351 9.54-.418 3.703-.818 4.413-2.235 3.963-2.153-.683-4.444 1.92-3.607 4.1.514 1.34.075 1.548-2.48 1.172-2.02-.296-3.286.013-3.62.885-.65 1.693-4.269 1.767-4.395.09" style="fill:#b9b9b9;fill-opacity:1;stroke:none;stroke-opacity:1;opacity:1;fill-rule:nonzero;stroke-linejoin:miter;stroke-width:2;stroke-miterlimit:4;stroke-dasharray:none"/><path d="M526.63 326.622c-.51-1.302-1.307-1.63-2.803-1.155-2.517.799-6.155-2.264-8.01-6.743-1.2-2.898-1.445-2.998-6.018-2.456-4.352.515-4.794.373-5.08-1.631-.201-1.418-1.015-2.196-2.299-2.197-1.092-.001-2.116-.676-2.275-1.5-.415-2.156-17.577-7.418-23.238-7.125-7.812.404-7.457.1-11.531 9.874-1.476 3.541-2.014 4.045-3.233 3.033-.805-.668-3.507-1.454-6.005-1.747-4.45-.523-4.64-.696-9.375-8.534-2.658-4.4-4.838-8.337-4.844-8.75-.007-.412 1.113-.75 2.488-.75 3.067 0 3.128-.702.32-3.692l-2.181-2.32 2.426-4.244c1.664-2.912 2.64-6.598 3.108-11.744.376-4.125.988-8.938 1.36-10.697.761-3.589-1.048-6.857-7.64-13.803-3.782-3.984-3.812-4.081-7.469-24.517l-3.67-20.517 3.332-4.983c1.833-2.74 3.688-5.133 4.123-5.316s.79-.731.79-1.218c0-.486 3.774-6.636 8.386-13.667s8.714-13.907 9.116-15.282 2.158-3.871 3.903-5.547c4.42-4.247 7.343-8.558 8.147-12.014.785-3.376 4.523-9.422 5.832-9.432.485-.004 1.709-.96 2.72-2.125 1.483-1.71 2.467-1.98 5.117-1.4 3.178.695 10.625 1.291 23.509 1.884 6.66.306 10.27 2.342 10.27 5.79 0 1.088.718 1.846 1.75 1.85 1.337.003 1.06.557-1.165 2.338-2.137 1.71-2.575 2.544-1.638 3.123.751.464 1.637.222 2.15-.588.48-.758.881-.929.89-.379s1.647 1.117 3.64 1.26c3.403.243 10.13 4.55 10.302 6.596.04.47 1.197 2.193 2.572 3.827s2.502 3.724 2.504 4.644.902 3.147 2 4.948c1.098 1.8 1.996 4.233 1.996 5.405s1.189 3.69 2.642 5.596c1.453 1.905 2.716 4.198 2.806 5.094.316 3.168 2.703 6.695 6.107 9.028 1.895 1.298 3.445 2.64 3.446 2.981 0 .342 1.04 1.828 2.307 3.303 2.869 3.335 2.528 8.684-.748 11.762l-2.24 2.104-2.605-2.605c-2.393-2.393-2.83-2.497-5.382-1.273-2.169 1.039-2.94 2.286-3.521 5.687-.968 5.668-2.056 6.843-7.12 7.683-4.963.823-9.589 5.477-9.651 9.71-.034 2.26.394 2.75 2.4 2.75 1.342 0 2.737-.479 3.1-1.065.43-.698 1.303-.48 2.533.633 3.93 3.556.524 13.932-4.574 13.932-2.703 0-14.35 9.127-14.444 11.319-.03.725 1.934 3.366 4.366 5.869 3.701 3.807 4.527 5.387 5.06 9.681.896 7.206 2.153 9.83 5.822 12.15 1.756 1.111 3.193 2.86 3.194 3.888s.902 2.37 2.002 2.981c1.1.612 2.28 1.495 2.62 1.962.342.468 2.052 1.143 3.8 1.5 1.749.358 3.27 1.1 3.38 1.65.287 1.433-8.18 1.845-9.826.479-1.864-1.547-4.992-.407-7.448 2.715-2.4 3.052-2.618 6.57-.514 8.317 1.147.952 1.24 1.584.382 2.617-.621.749-.912 2.196-.645 3.217s.193 3.61-.163 5.755c-.489 2.941-.824 3.453-1.362 2.081" style="fill:#b9b9b9;fill-opacity:1;stroke:none;stroke-opacity:1;opacity:1;fill-rule:nonzero;stroke-linejoin:miter;stroke-width:2;stroke-miterlimit:4;stroke-dasharray:none"/><g style="fill:#00c100;fill-opacity:1;stroke:none;stroke-opacity:1;stroke-linejoin:miter;stroke-width:2;stroke-miterlimit:4;stroke-dasharray:none"><path d="M368.907 395.076c0-2.144-3.634-7.135-5.195-7.135-.64 0-.555.597.215 1.525.696.838 1.024 1.765.73 2.06-.83.828-6.725-5.81-7.373-8.3-.55-2.116-7.377-10.188-7.377-8.724 0 .387.984 2.331 2.186 4.321l2.186 3.618-2.289-1.997c-1.258-1.099-2.983-3.349-3.832-5-.85-1.652-3.953-5.752-6.898-9.113s-5.353-6.706-5.353-7.432c0-1.989-7.34-13.92-8.576-13.94-.591-.01-2.156-1.168-3.476-2.573-1.973-2.1-2.066-2.427-.522-1.835 1.67.641 1.626.38-.402-2.363-1.255-1.697-2.826-2.876-3.492-2.62-.667.255-1.789-.231-2.494-1.081s-2.095-1.546-3.088-1.546-2.728-1.237-3.856-2.75-3.05-3.748-4.27-4.97c-2.993-2.995-1.613-4.045 1.795-1.365 1.912 1.505 3.038 1.828 3.78 1.087 1.782-1.783-.764-4.547-3.87-4.2-1.485.165-3.28-.18-3.988-.768-.708-.587-1.935-.82-2.727-.516s-2.284-.38-3.315-1.519c-1.668-1.843-1.733-2.464-.586-5.634.937-2.593.988-3.863.188-4.664-.801-.8-1.101-.365-1.101 1.6 0 1.484-.45 2.7-1 2.7s-1-.708-1-1.572-.68-2.25-1.51-3.08c-2.121-2.123-.925-3.464 2.073-2.325 2.283.868 2.403.781 1.43-1.038-.585-1.092-1.417-1.986-1.848-1.986s-2.281-1.336-4.11-2.969-3.675-2.753-4.1-2.49c-.426.263-1.616-.59-2.643-1.896s-2.87-2.693-4.095-3.082-2.01-1.056-1.746-1.483-.405-1.726-1.486-2.886-1.965-2.804-1.965-3.652c0-2.018-1.891-1.988-2.67.042-.49 1.276-.773 1.324-1.454.25-.65-1.025-.849-.933-.86.395-.014 1.47-.382 1.562-2.461.615-3.213-1.464-3.945-3.585-1.504-4.36 2.072-.657 2.545-1.997 1.034-2.93-.503-.312-1.1-.006-1.33.678-.328.986-1.004.976-3.253-.049-2.537-1.156-2.702-1.128-1.548.262 2.34 2.82-.763 1.705-4.188-1.504-3.116-2.92-3.151-3.032-.766-2.448l2.5.613-2.368-2.058c-1.944-1.69-2.146-2.326-1.127-3.553.978-1.18.982-1.805.016-2.97-.983-1.184-.8-2.348.928-5.918 1.183-2.445 2.868-5.04 3.745-5.768 1.406-1.167 1.511-1.029.887 1.17l-.706 2.491 1.92-2.386 1.92-2.387.661 2.637c.364 1.45 1.072 2.636 1.573 2.636.531 0 .562-1.216.075-2.917-.806-2.809-.563-3.091 6.505-7.568 7.709-4.883 14.888-11.85 16.453-15.968.901-2.37 1.016-2.394 4.064-.874 2.52 1.257 3.64 1.336 5.698.398 1.408-.641 2.873-.807 3.254-.368.95 1.092 4.785 16.728 5.51 22.466.723 5.725 1.705 6.592 8.575 7.574 5.054.723 5.44.974 5.755 3.743.186 1.632 1.874 4.667 3.75 6.744 3.742 4.142 3.931 5.406 2.396 16.019-.772 5.338-.666 7.636.506 11 .814 2.338 1.487 4.9 1.495 5.691.008.792 1.757 3.042 3.886 5 2.308 2.124 5.34 6.688 7.513 11.31 3.845 8.18 4.382 8.538 10.278 6.847 2.737-.785 3.473-.556 5.622 1.75 2.635 2.827 5.972 9.282 5.564 10.762-.522 1.897 1.409 10.92 2.745 12.828.774 1.105 1.407 3.232 1.407 4.727s.459 3.002 1.019 3.348 2.143 2.848 3.517 5.56c1.747 3.447 3.103 4.928 4.512 4.928 2.391 0 3.691 2.661 2.085 4.268-.623.623-1.133 2.067-1.133 3.21s-.729 3.118-1.62 4.39c-1.594 2.275-1.538 7.25.128 11.382.582 1.443.16 1.75-2.401 1.75-2.366 0-3.107-.445-3.107-1.865" style="fill:#b9b9b9;fill-opacity:1;stroke:none;stroke-opacity:1;opacity:1;fill-rule:nonzero;stroke-linejoin:miter;stroke-width:2;stroke-miterlimit:4;stroke-dasharray:none"/><path d="M291.259 311.702c-1.837-2.972-5.255-10.19-4.964-10.482.536-.536 5.236 7.074 5.85 9.471.638 2.496.282 2.901-.886 1.01" style="fill:#b9b9b9;fill-opacity:1;stroke:none;stroke-opacity:1;opacity:1;fill-rule:nonzero;stroke-linejoin:miter;stroke-width:2;stroke-miterlimit:4;stroke-dasharray:none"/></g><path d="M333.157 278.21c-3.206-.29-4.25-.806-4.25-2.105 0-.947-1.536-3.303-3.414-5.236-1.937-1.995-3.559-4.791-3.75-6.467-.313-2.745-.72-3.012-5.836-3.81-3.025-.473-6.034-1.294-6.687-1.825s-1.488-3.522-1.856-6.646-1.658-9.28-2.867-13.68l-2.197-8-5.055.308c-4.717.288-5.333.04-9.224-3.698l-4.17-4.006.672-8.052c.445-5.335.32-8.052-.368-8.052-.571 0-1.904-1.687-2.961-3.75a591 591 0 0 0-4.279-8.14c-1.305-2.432-2.39-6.223-2.432-8.5l-.076-4.11 7.75.317c8.671.355 8.739.284 6.701-7.052-.627-2.26-.684-4.432-.144-5.5.491-.97.623-7.261.293-13.98-.574-11.684-.513-12.226 1.4-12.5 1.696-.241 2.115-1.35 2.754-7.285 1.315-12.209 1.284-27.806-.06-30.224-.68-1.223-2.039-8.329-3.02-15.79-2.035-15.495-1.838-16.111 4.791-14.991l4.035.681V67.03c0-6.886.322-9.088 1.327-9.088.73 0 11.193.662 23.25 1.472s25.43 1.596 29.718 1.748l7.795.277 2.377 5.002c2.293 4.823 8.317 12.501 9.808 12.501.767 0 4.725 3.704 4.725 4.422 0 .232 2.925 3.434 6.5 7.116s6.5 7.044 6.5 7.47 1.211 1.08 2.692 1.451c3.512.882 11.029 8.994 11.866 12.806.36 1.64 1.578 4.547 2.707 6.46 1.14 1.934 1.993 5.028 1.92 6.973-.072 1.922.532 5.082 1.342 7.02.81 1.94 1.478 4.26 1.483 5.155s2.706 3.591 6 5.991 5.99 4.74 5.99 5.199c0 1.85 4.699 5.72 7.758 6.388 1.792.392 3.701 1.539 4.242 2.55s2.306 2.127 3.923 2.482 3.514 1.339 4.217 2.186c1.127 1.358 5.17 3.514 7.027 3.748 2.169.272.778 2.964-9.659 18.691-6.347 9.566-11.911 18.067-12.365 18.892-.489.89.518 8.825 2.475 19.5 4.255 23.217 4.277 21.942-.368 21.01-11.67-2.343-12.39-2.068-19.455 7.412-4.03 5.408-5.125 5.845-6.589 2.632-1.368-3.002-5.522-4.25-9.344-2.808-2.156.814-3.048.735-3.946-.347-1.52-1.831-3.4-1.771-5.342.17-2.13 2.13-5.002 1.048-8.144-3.072-1.438-1.885-3.855-3.65-5.488-4.01-1.604-.352-4.159-1.956-5.676-3.563-3.065-3.247-4.763-3.677-5.628-1.424-.316.825-1.152 1.515-1.857 1.532-2.285.056-5.017 4.91-4.55 8.087.496 3.384.124 3.763-4.193 4.265-4.039.47-4.074.525-3.1 4.845.679 3.006.487 3.982-1.055 5.377-1.318 1.193-1.888 3.083-1.898 6.3-.009 2.527-.346 5.054-.75 5.615-.834 1.158-5.966 3.57-7.032 3.305-.387-.096-2.616-.347-4.953-.558" style="fill:#b9b9b9;fill-opacity:1;stroke:none;stroke-opacity:1;opacity:1;fill-rule:nonzero;stroke-linejoin:miter;stroke-width:2;stroke-miterlimit:4;stroke-dasharray:none"/><path d="M819.594 672.278c-4.503-4.216-9.312-8.773-10.687-10.127-2.471-2.434-2.474-2.457-.249-1.93 1.318.313 2.004.132 1.653-.435-.614-.993-4.591-2.756-7.59-3.363-3.182-.645-5.39-2.33-10.998-8.4-3.091-3.345-6.17-6.082-6.84-6.082-.87 0-.92-.363-.174-1.261.777-.936.402-1.566-1.45-2.44-2.14-1.01-2.327-.973-1.303.261 2.41 2.904-1.08 1.44-7.223-3.029-3.378-2.458-6.633-4.708-7.234-5-.744-.361-.694-.716.158-1.114 1.934-.903 1.476-2.417-.731-2.417-1.351 0-2.17-.874-2.573-2.75-.325-1.512-1.284-4.397-2.13-6.411-1.476-3.509-1.405-4.072 1.706-13.5 1.785-5.411 3.573-10.289 3.974-10.839.4-.55 1.022-2.229 1.38-3.731.375-1.567 1.844-3.348 3.444-4.175 3.01-1.557 5.18-5.313 5.18-8.966 0-1.254 1.157-3.366 2.57-4.694 1.854-1.741 2.435-3.115 2.083-4.924-.676-3.473 2.09-9.01 4.503-9.01 3.012 0 5.573 3.122 6.173 7.525.923 6.766 2.35 9.475 4.991 9.475 1.304 0 3.184.9 4.18 2s2.303 1.993 2.905 1.983c1.382-.022 4.755-3.558 7.208-7.559 3.437-5.604 7.23-9.424 9.358-9.424 1.154 0 3.234-.743 4.621-1.652 2.432-1.593 2.682-1.54 6.994 1.5 2.46 1.734 4.893 3.152 5.408 3.152 1.673 0 3.019 3.588 1.802 4.805-1.61 1.61.351 3.594 5.107 5.164 2.163.713 3.741 1.8 3.508 2.414s1.717 2.451 4.333 4.082 6.652 4.947 8.97 7.37c2.714 2.838 4.76 4.197 5.75 3.818.845-.325 1.536-.189 1.536.301s1.497 1.385 3.327 1.99c3.37 1.112 6.84 4.858 8.06 8.7.41 1.295 2.414 2.772 5.2 3.837 4.309 1.645 4.45 1.82 2.867 3.57-1.17 1.293-1.559 3.15-1.31 6.255l.356 4.415-16.5.658c-9.075.361-19.099.934-22.275 1.271l-5.775.614-5.899 11.118c-3.244 6.115-6.31 11.584-6.812 12.152-2.327 2.633-2.21 6.145.28 8.485 2.535 2.38 3.234 5.828 1.529 7.533-.85.85-1.097 3.504-1.061 11.347.011 2.53-1.588 5.101-3.173 5.101-.517 0-4.625-3.448-9.127-7.663" style="fill:#b9b9b9;fill-opacity:1;fill-rule:nonzero;stroke:none;stroke-width:2;stroke-linejoin:miter;stroke-miterlimit:4;stroke-dasharray:none;stroke-opacity:1"/><path d="M674.643 643.813c-.884-.494-3.875-1.329-6.647-1.855-2.772-.525-6.885-2.177-9.14-3.67-3.194-2.112-5.912-2.888-12.275-3.5a1864 1864 0 0 1-11.985-1.188c-2.28-.24-4.89-1.415-6.5-2.928-4.91-4.614-9.437-6.723-14.44-6.727-2.612-.002-4.75-.29-4.75-.639s1.013-1.667 2.25-2.927a337 337 0 0 0 3.25-3.35c.55-.583 3.382-3.203 6.293-5.823l5.292-4.765-.936-4.872c-.75-3.903-1.832-5.693-5.44-9-5.276-4.833-6.558-8.343-6.815-18.655-.232-9.325 1.1-11.973 6.026-11.973 1.892 0 4.933.54 6.76 1.201 4.487 1.623 6.313.022 4.29-3.759-1.2-2.24-1.185-2.967.104-5.263 1.875-3.34 4.927-4.152 4.927-1.31 0 1.107.478 2.309 1.062 2.67s1.472 1.737 1.975 3.059c1.102 2.899 2.533 3.075 3.92.482.893-1.669 2.07-1.9 8.986-1.768 6.599.126 8.424-.195 10.686-1.884 3.235-2.415 9.256-12.932 9.324-16.285.034-1.729.468-2.195 1.629-1.75.87.334 1.977.607 2.46.607 1.519 0 4.958 4.294 4.958 6.189 0 .996.473 1.811 1.052 1.811s1.534 1.383 2.123 3.072c1.221 3.504 4.12 4.928 10.03 4.928 2.708 0 4.52.587 5.403 1.75 1.795 2.365 1.738 7.719-.098 9.242-1.559 1.294-1.29 4.577.716 8.72 1.561 3.224 9.052 4.248 12.08 1.65 3.114-2.672 9.583-5.806 10.367-5.022.363.363.135.66-.506.66-4.147 0 3.269 9.728 9.083 11.916 1.754.66 2.75 1.768 2.75 3.06 0 1.113.562 2.027 1.25 2.03 6.048.026 33.134 1.045 33.344 1.255.149.149-1.73 5.783-4.175 12.52l-4.445 12.25 2.013 3.945c2.138 4.19 2.59 7.024 1.12 7.024-.491 0-1.163-.703-1.493-1.563s-1.096-1.257-1.702-.882-2.391-.272-3.967-1.437c-3.413-2.523-3.945-2.603-3.945-.586 0 .842.787 1.796 1.75 2.12 4.459 1.497 11.25 4.778 11.25 5.433 0 .401-3.038-.567-6.75-2.15-3.713-1.585-8.325-2.9-10.25-2.923-4.369-.053-6.967-1.426-4.494-2.376.921-.353 2.084-.389 2.584-.08.5.31.91.102.91-.461s-.937-1.526-2.083-2.14c-1.64-.876-2.456-.777-3.829.466-2.324 2.103-3.088 1.991-3.088-.452 0-3.07-2.723-3.532-4.91-.831-2.271 2.804-1.746 4.192 1.244 3.29 1.482-.446 1.85-.325 1.166.383-.55.57-2.125 1.241-3.5 1.492s-.25.297 2.5.103c3.458-.245 4.537-.059 3.5.605-.825.527-4.254.966-7.62.974-5.82.015-6.312.213-10 4.015-2.134 2.199-4.683 4-5.665 4s-2.885.721-4.23 1.602-4.249 2.007-6.454 2.503c-2.205.495-6.152 2.213-8.77 3.816-2.619 1.604-6.336 3.17-8.261 3.48-7.76 1.25-9.726 1.332-11.264.471" style="fill:#b9b9b9;fill-opacity:1;fill-rule:nonzero;stroke:none;stroke-width:2;stroke-linejoin:miter;stroke-miterlimit:4;stroke-dasharray:none;stroke-opacity:1"/><path d="M605.284 621.483c-.325-.848-1.022-1.542-1.549-1.542s-2.033-1.278-3.348-2.84c-1.948-2.316-3.22-2.854-6.879-2.91-3.134-.047-5.18-.712-6.78-2.202-1.26-1.174-2.448-1.665-2.64-1.091-.568 1.706-2.965 1.192-5.092-1.092-1.516-1.627-2.705-1.991-5-1.532-1.656.33-3.247.221-3.535-.245-.7-1.132-4.554-2.102-4.554-1.147 0 .415 1.012 1.242 2.25 1.839 2.223 1.072 2.224 1.086.122 1.153-1.17.037-2.716-.643-3.437-1.51-.72-.868-3.588-2.72-6.372-4.115-2.785-1.394-5.878-3.254-6.874-4.132-1.398-1.232-1.987-1.312-2.58-.352-.756 1.223-4.11.626-4.11-.732 0-.383-1.528-.739-3.397-.792-1.869-.052-6.859-1.717-11.089-3.698s-8.101-3.602-8.602-3.602-.911-.656-.911-1.457c0-.802-2.025-2.645-4.5-4.095s-4.5-3.218-4.5-3.928c0-1.633-4.17-4.397-7.754-5.14-1.705-.353-4.017-2.275-6.098-5.068-3.352-4.498-9.157-7.906-11.765-6.905-1.012.388-1.383-.392-1.383-2.912 0-2.766.555-3.73 2.823-4.903 4.696-2.429 5.618-4.113 4.167-7.616-1.085-2.619-1.013-3.293.533-5.001 2.304-2.546 6.923-2.528 9.487.036 1.658 1.657 2.754 1.888 6.25 1.317 7.7-1.258 16.875-.531 27.892 2.208 2.14.533 2.78.252 3.323-1.457.37-1.164.543-3.346.385-4.848-.305-2.912.663-5.23 2.186-5.23 1.229 0 3.954 6.618 3.954 9.602 0 1.72.72 2.54 2.655 3.026 2.186.548 3.115.108 5.25-2.49 2.152-2.618 3.3-3.155 6.724-3.148 3.59.008 4.28-.359 5.296-2.81 1-2.412 1.615-2.755 4.255-2.367 3.4.499 6.271 2.882 7.272 6.037.81 2.551 4.165 3.712 6.096 2.11.799-.663 1.452-.799 1.452-.302 0 1.243 9.724 11.341 10.92 11.341.532 0 1.56.788 2.285 1.75 1.624 2.154 5.237 4.25 7.327 4.25.857 0 2.716 1.157 4.13 2.571 2.436 2.437 2.54 2.97 2.003 10.25-.432 5.847-.22 8.143.884 9.62.798 1.068 1.45 2.756 1.45 3.75s.37 1.81.82 1.81 2.418 1.462 4.373 3.25c2.788 2.548 3.684 4.256 4.15 7.911.569 4.452.42 4.82-3.285 8.168-2.134 1.928-4.82 4.008-5.969 4.623-1.148.615-2.088 1.692-2.088 2.395 0 .702-1.357 2.28-3.016 3.506-2.573 1.902-3.102 2.003-3.607.688M851.574 579.275c-.367-.367-.667-1.399-.667-2.294 0-1-1.638-2.234-4.25-3.203-3.403-1.262-4.2-2.015-4-3.773.304-2.672-1.375-6.049-3.035-6.104-.668-.023-2.773-1.373-4.677-3-3.736-3.194-7.44-3.727-10.385-1.496-1.016.77-2.523 1.14-3.348.823-1.548-.594-4.37 2.225-8.722 8.713-3.263 4.866-6.134 8-7.328 8-.556 0-1.57-.675-2.255-1.5s-2.288-1.5-3.563-1.5c-2.95 0-3.397-.785-4.106-7.226-.69-6.27-3.651-9.774-8.262-9.774-2.371 0-3.365.673-4.64 3.139-.943 1.822-1.394 4.285-1.077 5.873.407 2.033-.053 3.298-1.791 4.932-1.287 1.208-2.651 3.628-3.033 5.376l-.693 3.18-1.021-2.5c-2.112-5.17-3.698-7.533-5.787-8.623-3.735-1.95-8.79-8.263-9.314-11.634-.278-1.783-.81-4.182-1.183-5.33-.517-1.592-.022-2.515 2.095-3.903 1.884-1.234 2.896-1.447 3.157-.663.548 1.645 1.585 1.437 4.218-.847 1.268-1.1 3.11-2 4.094-2 .983 0 2.107-.515 2.496-1.145.688-1.114-1.072-.912-6.247.717-1.667.524-1.659.462.087-.647 2.08-1.321 14.481-3.931 18.57-3.908 1.792.01 2.114.259 1.137.878-1.144.724-1.145.936-.01 1.315.746.248 1.942-.136 2.659-.853s2.971-1.76 5.009-2.317 5.075-2.256 6.748-3.776c2.847-2.585 6.857-5.264 7.88-5.264.248 0 .591 1.463.764 3.25.29 3.013.605 3.272 4.313 3.551 4.862.366 6.495 2.281 6.515 7.64.02 5.076.502 5.792 5.667 8.41 2.3 1.167 4.464 2.577 4.81 3.135.756 1.225 7.473 1.323 9.344.137.735-.466 1.185-1.922 1-3.235-.274-1.948.156-2.444 2.338-2.697 1.47-.17 4.49.618 6.71 1.75s5.581 2.06 7.47 2.06c2.138 0 3.65.569 4.011 1.51.32.83.885 6.905 1.257 13.5l.678 11.99h-6.483c-3.566 0-6.784-.3-7.15-.667" style="fill:#b9b9b9;fill-opacity:1;fill-rule:nonzero;stroke:none;stroke-width:2;stroke-linejoin:miter;stroke-miterlimit:4;stroke-dasharray:none;stroke-opacity:1"/><path d="M474.907 564.441c-1.925-.74-4.81-1.382-6.413-1.423-1.601-.042-4.976-1.38-7.5-2.974s-7.052-3.411-10.064-4.038c-5.602-1.167-14.023-5.413-14.023-7.072 0-.508-1.274-2.401-2.831-4.208-4.239-4.917-4.535-6.561-1.771-9.846 1.326-1.575 2.575-3.358 2.776-3.962.202-.603 1.836-1.139 3.632-1.19s3.51-.488 3.808-.97c.298-.483 2.018-.601 3.821-.263 2.85.535 4.016.016 8.908-3.97 3.096-2.52 6.56-4.584 7.7-4.584 3.003 0 8.096-5.918 7.743-9-.234-2.047-.784-2.465-3.036-2.311-2.237.153-2.75-.23-2.75-2.05 0-1.231-.467-2.705-1.037-3.276-.716-.716-.716-1.881 0-3.765.57-1.5 1.037-3.062 1.037-3.47 0-.972-6.732-3.924-10.804-4.738-3.615-.723-3.782-1.109-1.74-4.023 1.07-1.528 2.95-2.232 7.108-2.661 3.592-.37 7.036-1.499 9.447-3.094 2.825-1.87 5.75-2.688 11.463-3.205l7.67-.695 2.871 3.144c3.35 3.668 4.83 3.88 7.985 1.144 4.191-3.635 9-1.55 9 3.903 0 3.729 3.715 5.855 7.082 4.053 3.945-2.11 9.213-2.008 10.973.215 1.198 1.513 2.988 2.022 7.797 2.219 5.206.213 6.764-.13 9.389-2.067 3.423-2.526 7.659-3.023 9.559-1.123 1.448 1.448 1.61 7.8.2 7.8-.55 0-1 .863-1 1.917s-.401 2.067-.891 2.25-1.326 4.945-1.858 10.582c-1.078 11.43-5.323 23.174-8.394 23.225-2.104.034-2.857 2.067-2.857 7.715 0 3.929-.23 4.427-1.75 3.776-4.009-1.717-12.41-2.78-22.66-2.87-7.765-.067-11.032-.455-11.333-1.345-.709-2.091-8.665-1.56-10.725.715-1.634 1.806-1.708 3.2-.419 7.965.219.81-1.241 2.51-3.363 3.918-3.374 2.238-3.75 2.923-3.75 6.82 0 4.078-.162 4.328-2.75 4.256-1.513-.041-4.325-.682-6.25-1.424M586.907 545.941c-2.254-3.165-5-4.006-5-1.531 0 .895-.586 1.244-1.5.893-.825-.317-1.5-1.207-1.5-1.978 0-.772-.9-2.174-2-3.116-1.1-.941-2-2.035-2-2.429s1.8-2.797 4-5.339c2.2-2.541 4-5.319 4-6.172 0-1.24.751-1.42 3.75-.905 8.684 1.495 9.25 1.719 9.25 3.657 0 1.529.715 1.92 3.508 1.92 3.259 0 3.42.143 2.26 2-.999 1.6-.999 2.401 0 4 .74 1.186.838 2 .24 2-.554 0-1.008 1.58-1.008 3.509 0 3.307-.122 3.436-2.13 2.25-1.717-1.014-2.22-1.011-2.591.012-.4 1.107-5.319 4.23-6.661 4.23-.265 0-1.443-1.35-2.618-3" style="fill:#b9b9b9;fill-opacity:1;fill-rule:nonzero;stroke:none;stroke-width:2;stroke-linejoin:miter;stroke-miterlimit:4;stroke-dasharray:none;stroke-opacity:1"/><path d="M547.574 547.275c-.367-.367-.667-1.59-.667-2.717s-.713-3.917-1.585-6.2c-1.541-4.035-1.512-4.293 1.076-9.4 1.96-3.866 2.911-7.79 3.61-14.884.956-9.703 2.398-15.133 4.02-15.133.484 0 .879-1.992.879-4.428 0-2.539.62-5.049 1.452-5.881.8-.799 1.156-1.749.794-2.111s.36-.925 1.604-1.25c1.38-.362 2.058-1.126 1.738-1.961-.723-1.884.383-1.706 3.912.631 1.65 1.093 4.447 1.99 6.215 1.994 3.58.007 4.71 1.423 5.807 7.275.64 3.406.986 3.731 3.973 3.731 2.424 0 3.406-.515 3.792-1.988.558-2.134 5.223-4.432 6.898-3.397.559.345.774 1.842.477 3.326-.537 2.683-.507 2.698 5.112 2.629 5.297-.065 5.714.104 6.638 2.697.844 2.369.655 2.998-1.315 4.378-1.797 1.259-2.005 1.794-.949 2.446 1.962 1.21 2.586 20.83.7 22.025-2.44 1.545-4.848.991-4.848-1.116 0-1.11-.667-2-1.5-2-1.064 0-1.504-1.09-1.515-3.75-.008-2.062-.65-4.875-1.427-6.25a226 226 0 0 1-3.099-5.75c-1.747-3.366-3.46-4.284-3.46-1.855 0 .767-1.406 2.9-3.126 4.741-3.072 3.29-3.106 3.432-1.901 8.131 1.363 5.32 1.007 6.233-4.92 12.587-2.712 2.907-3.573 3.271-6.46 2.73-3.014-.566-3.452-.337-4.583 2.395-1.119 2.701-1.709 3.021-5.562 3.021-3.648 0-4.64.461-6.447 3-2.064 2.899-3.945 3.722-5.333 2.334" style="fill:#b9b9b9;fill-opacity:1;fill-rule:nonzero;stroke:none;stroke-width:2;stroke-linejoin:miter;stroke-miterlimit:4;stroke-dasharray:none;stroke-opacity:1"/><g style="fill:#00c100;fill-opacity:1;stroke:none;stroke-width:2;stroke-linejoin:miter;stroke-miterlimit:4;stroke-dasharray:none;stroke-opacity:1"><path d="M864.728 555.798c-.303-3.163-.58-3.39-4.821-3.93-2.475-.316-6.619-1.634-9.209-2.93-4.035-2.018-5.087-2.183-7.352-1.15-2.146.977-2.526 1.669-2.022 3.679.578 2.303.362 2.474-3.132 2.474-4.682 0-13.974-4.721-14.714-7.477-.3-1.112-.55-3.62-.557-5.573-.018-4.538-1.488-5.95-6.195-5.95-3.198 0-3.878-.385-4.408-2.497-1.246-4.965-.203-5.58 9.087-5.363 5.524.129 8.915.653 9.606 1.486 2.084 2.51-.066 3.478-6.188 2.785-4.298-.486-5.916-.342-5.916.528 0 .75.762.954 2.04.549 1.123-.357 4.428.103 7.345 1.02 4.9 1.542 5.268 1.87 4.828 4.33l-.476 2.662 2.004-2c1.102-1.1 1.81-2.337 1.572-2.75-.623-1.083 3.106-.92 6.244.272 2.414.918 2.635.82 2.17-.957-.405-1.55.198-2.215 2.79-3.07 4.902-1.618 6.815-6.948 3.361-9.367-1.152-.807-1.798-1.949-1.435-2.536.406-.656.062-.839-.891-.473-.854.327-1.552.997-1.552 1.488 0 .492-.45.893-1 .893-2.324 0-.625-1.979 5.031-5.86 3.318-2.277 6.446-4.14 6.953-4.14.506 0 3.104-2.182 5.772-4.85 4.702-4.703 4.884-5.105 5.949-13.172.889-6.731 1.533-8.649 3.375-10.038 2.14-1.614 2.268-2.367 2.141-12.589-.074-5.98.289-11.542.807-12.361.702-1.11.945-.663.957 1.76.015 3.214.07 3.25 4.815 3.25 2.64 0 5.227-.417 5.75-.927.592-.578 5.334 4.073 12.585 12.343l11.635 13.27 1.584 11.407c1.77 12.747 5.24 54.671 4.574 55.269-.235.21-9.878.905-21.428 1.542s-23.33 1.417-26.179 1.734l-5.178.575z" style="opacity:1;fill:#b9b9b9;fill-opacity:1;fill-rule:nonzero;stroke:none;stroke-width:2;stroke-linejoin:miter;stroke-miterlimit:4;stroke-dasharray:none;stroke-opacity:1"/><path d="M836.407 527.478c2.2-1.36 4.525-2.488 5.167-2.505.641-.018 1.393-.594 1.67-1.282.278-.687.54-.766.584-.174.147 1.998-4.872 5.745-8.158 6.092l-3.263.344z" style="opacity:1;fill:#b9b9b9;fill-opacity:1;fill-rule:nonzero;stroke:none;stroke-width:2;stroke-linejoin:miter;stroke-miterlimit:4;stroke-dasharray:none;stroke-opacity:1"/></g><path d="M585.967 523.978c-2.83-.441-3.583-1.092-4.247-3.664-.705-2.734-.37-3.604 2.66-6.912 3.11-3.396 3.535-3.588 4.148-1.872.376 1.051 1.281 2.613 2.013 3.47.73.857 1.536 3.174 1.789 5.149.521 4.074-.572 4.732-6.363 3.829" style="fill:#ccc;fill-opacity:1;fill-rule:nonzero;stroke:none;stroke-width:2;stroke-linejoin:miter;stroke-miterlimit:4;stroke-dasharray:none;stroke-opacity:1"/><path d="M616.892 519.454c-1.383-.732-3.992-3.387-5.798-5.901-2.387-3.325-3.882-4.508-5.481-4.341-1.607.167-2.287-.377-2.522-2.02-.297-2.07.067-2.25 4.555-2.25 2.683 0 5.73-.623 6.77-1.384 1.159-.847 2.493-1.064 3.441-.56.853.452 2.818 1.091 4.367 1.419 1.697.359 3.487 1.776 4.5 3.562.926 1.631 2.256 2.75 2.956 2.487 1.13-.426 5.227 2.69 5.227 3.975 0 .275-1.121.5-2.492.5-1.378 0-3.03.863-3.696 1.93-.947 1.516-1.613 1.712-3.103.915-1.466-.785-2.388-.56-4.053.991-1.904 1.772-2.45 1.851-4.671.677" style="fill:#b9b9b9;fill-opacity:1;fill-rule:nonzero;stroke:none;stroke-width:2;stroke-linejoin:miter;stroke-miterlimit:4;stroke-dasharray:none;stroke-opacity:1"/><path d="M605.294 502.191c-1.898-6.04-2.145-6.25-7.366-6.25-4.706 0-5.021-.159-5.021-2.53 0-1.393-.66-2.786-1.467-3.095-2.37-.91-6.951 1.073-8.033 3.476-1.63 3.62-4.82 2.37-6-2.35-1.405-5.621-2.184-6.496-5.81-6.532-3.622-.035-11.457-4.376-9.775-5.416.597-.369 1.089-2.332 1.094-4.362.008-3.45.35-3.861 5.25-6.302 3.572-1.78 5.147-3.137 4.945-4.261-.163-.907 1.074-4.147 2.75-7.2s3.046-6.202 3.046-6.998c0-1.16.368-1.216 1.86-.285 1.496.934 2.36.79 4.431-.742 1.415-1.046 3.05-2.928 3.632-4.181.968-2.08 1.257-2.156 3.319-.87 1.242.776 4.668 1.673 7.613 1.995l5.356.584-.402-3.437c-.253-2.166.066-3.615.863-3.921 1.647-.632 2.5.814 1.705 2.888-.879 2.29 3.435 6.734 5.806 5.981 1-.317 1.817-.149 1.817.374s.93 1.194 2.065 1.491c1.963.513 1.988.69.507 3.554-.857 1.657-1.288 3.716-.958 4.576.698 1.819 0 1.963-2.646.547-1.543-.826-2.21-.545-3.549 1.5-.907 1.384-2.272 2.516-3.034 2.516s-1.385.675-1.385 1.5.64 1.5 1.423 1.5c1.214 0 1.203.443-.077 3.01-1.675 3.357-1.015 8.797 1.17 9.635 1.965.754 5.298-1.346 9.947-6.267 4.56-4.829 5.972-5.301 7.472-2.5.818 1.53.316 2.59-2.715 5.724-2.046 2.115-4.356 3.857-5.134 3.872-2.475.046-2.3 2.34.31 4.05 2.094 1.373 2.419 2.184 1.924 4.814-.327 1.74-1.208 3.873-1.957 4.741s-1.363 2.909-1.363 4.535c0 2.202-.74 3.393-2.904 4.67-3.806 2.249-7.997 2.232-8.709-.034M431.657 448.178c-.963-.21-1.75-.77-1.75-1.243 0-.472-.96-1.163-2.132-1.536-1.173-.372-1.688-.965-1.145-1.317s1.528-2.3 2.189-4.328 2.026-4.736 3.034-6.017c2.466-3.135 5.043-9.46 4.219-10.355-.366-.397.501-.443 1.927-.102 5.506 1.317 13.043-8.753 13.297-17.767.104-3.665-.118-3.988-3.316-4.824-4.9-1.282-8.073.604-8.073 4.799 0 3.813-1.776 5.586-4.802 4.795-2.633-.688-2.658-1.073-.556-8.562 1.575-5.612 1.564-5.91-.25-7.284-2.813-2.129-3.086-1.933-4.888 3.493-.911 2.743-2.073 5.245-2.58 5.559-1.159.716-1.197.93.913-5.173.974-2.82 2.535-5.889 3.467-6.822 3.015-3.015 1.801-4.115-5.304-4.809-2.15-.21-2.544.21-2.813 3.006-.187 1.939.143 3.25.82 3.25.622 0 .988 1.013.812 2.25-.25 1.767-.856 2.175-2.82 1.897-1.374-.194-2.846-.869-3.27-1.5-1.152-1.716-.168-19.306 1.456-26.016.782-3.228 2.185-6.428 3.118-7.11s1.697-1.754 1.697-2.38c0-.628 1.13-1.14 2.51-1.14 2.385 0 2.489-.236 2.094-4.75-.603-6.911.23-9.831 3.248-11.386 1.456-.75 3.506-2.425 4.555-3.722 1.049-1.296 2.664-3.096 3.59-4s1.987-2.485 2.358-3.515c.584-1.616 1.393-1.792 5.91-1.285 2.88.323 7.26.96 9.735 1.415s7.2.584 10.5.285l6-.543.294-6.662c.23-5.235-.23-7.951-2.152-12.681-1.346-3.31-2.19-6.275-1.877-6.588 1.124-1.124 10.817-.45 14.735 1.026 5.106 1.922 5.364 2.003 9.25 2.903 1.85.428 3.25 1.385 3.25 2.221 0 .808.805 1.68 1.79 1.937.983.257 2.221 1.452 2.75 2.656.828 1.888 1.613 2.143 5.71 1.856 2.939-.206 4.75.08 4.75.747 0 .594 1.654 2.91 3.675 5.147 2.897 3.207 4.166 3.944 6 3.484 3.259-.818 3.105 2.142-.19 3.643-1.492.68-2.848 2.4-3.335 4.229-.679 2.554-1.264 3.035-3.41 2.806-2.986-.318-4.209 2.06-3.175 6.179.553 2.204-.48 3.813-7.21 11.235-7.795 8.596-11.904 11.362-16.878 11.362-3.304 0-11.077 3.516-11.771 5.325-.292.76.321 2.11 1.362 3.002 1.381 1.182 1.735 2.407 1.31 4.531-.918 4.593 1.953 9.332 7.681 12.677 2.925 1.708 5.253 3.86 5.579 5.158.792 3.159 3.162 4.993 3.915 3.03.328-.854 1.35-1.299 2.373-1.032 2.196.575 7.074-3.708 7.074-6.21 0-1.714.085-1.713 2 .02 2.483 2.246 2.626 7.047.25 8.386-1.665.938-1.665 1.146.018 4.3 2.27 4.25 1.45 11.175-1.805 15.257l-2.33 2.923-3.299-3.224c-1.896-1.855-4.156-3.123-5.316-2.985-3.124.37-6.517-2.304-6.529-5.148-.006-1.564-1.658-4.296-4.384-7.252-3.717-4.03-4.557-4.52-5.594-3.27-1.598 1.925-6.833 4.512-9.13 4.512-.996 0-2.29.896-2.876 1.99s-2.358 2.659-3.94 3.477c-5.032 2.602-6.067 4.293-6.033 9.855.03 4.866 1.563 8.608 3.578 8.734 1.783.11 5.526 5.939 4.96 7.722-.313.986-2.45 3.24-4.751 5.008-4.258 3.272-8.832 4.06-19.82 3.412-1.924-.114-4.624.16-6 .608-1.374.448-3.287.642-4.25.431" style="fill:#b9b9b9;fill-opacity:1;fill-rule:nonzero;stroke:none;stroke-width:2;stroke-linejoin:miter;stroke-miterlimit:4;stroke-dasharray:none;stroke-opacity:1"/><g style="fill:#00c100;fill-opacity:1;stroke:none;stroke-width:2;stroke-linejoin:miter;stroke-miterlimit:4;stroke-dasharray:none;stroke-opacity:1"><path d="M733.907 584.824c0-1.291-1.136-2.464-3.25-3.355-1.788-.754-4.82-3.001-6.739-4.993-2.737-2.842-3.19-3.806-2.104-4.477 1.666-1.03.73-4.058-1.253-4.058-.775 0-1.97.675-2.654 1.5-.685.825-1.953 1.5-2.818 1.5s-2.78 1.156-4.254 2.569c-6.473 6.202-15.494-2.033-10.319-9.42 1.376-1.965 1.432-2.93.388-6.66-1.398-4.99-2.17-5.475-7.865-4.926-2.303.222-4.132-.036-4.132-.582 0-.54-.9-.98-2-.98-1.111 0-2-.667-2-1.5 0-.826-.9-2.4-2-3.5s-2.014-2.563-2.032-3.25c-.056-2.207-2.436-4.501-6.375-6.147-5.22-2.181-5.846-2.042-5.162 1.146.399 1.862-.093 3.862-1.523 6.192l-2.111 3.44-1.683-2.23c-1.614-2.14-1.831-2.168-5.363-.692-3.469 1.45-3.742 1.426-4.716-.395-.57-1.063-1.035-2.602-1.035-3.42 0-.845-1.322-1.776-3.068-2.16-4.008-.88-4.6-2.737-2.025-6.353 1.15-1.617 2.093-4.29 2.093-5.941 0-2.653.493-3.157 4.25-4.346 5.722-1.81 5.947-4.902.44-6.047-5.54-1.15-7.381-2.402-7.956-5.407-.669-3.501 3.716-15.318 6.998-18.857 2.052-2.213 2.276-2.915 1.156-3.624-.763-.483-1.89-.886-2.503-.894s-2.261-.917-3.661-2.018c-2.573-2.024-5.724-1.799-5.724.41 0 2.575-2.145 3.448-3.975 1.617-.976-.976-2.22-1.943-2.764-2.15-.605-.229-.702-2.126-.25-4.875.406-2.475.795-4.131.864-3.681s1.455-.13 3.08-1.286c3.402-2.423 3.194-3.859-.9-6.196-2.146-1.225-3-2.544-3.235-5-.273-2.849-.66-3.289-2.646-3.01-2.804.392-6.174 3.556-6.174 5.796 0 1.328-.272 1.396-1.498.38-1.228-1.02-2.13-.761-5.02 1.444-1.938 1.477-4.195 3.712-5.017 4.966-.821 1.254-2.624 2.795-4.007 3.425-2.27 1.034-2.61.892-3.51-1.474-.787-2.071-.575-3.33 1.016-6.028l2.012-3.409-2.238-.9c-1.523-.612-1.718-.92-.61-.963.895-.035 2.268-1.027 3.05-2.206 1.182-1.78 1.772-1.954 3.49-1.035 2.452 1.312 3.332.666 3.332-2.442 0-1.258.516-3.42 1.147-4.804.884-1.94.858-2.866-.113-4.036-.694-.835-1.66-1.272-2.147-.97-.488.3-.887-.184-.887-1.079 0-1.19-.556-1.45-2.072-.969-2.685.852-5.89-1.953-5.208-4.56.276-1.057-.424-3.7-1.557-5.874l-2.06-3.95 2.027-2.577c1.487-1.89 1.852-3.365 1.374-5.544q-.652-2.968.922-5.215c.866-1.236 1.574-3 1.574-3.918s.675-1.93 1.5-2.246c2.404-.923 1.762-2.388-2.232-5.103-3.821-2.596-3.726-2.874.883-2.577 1.458.094 2.947-.308 3.309-.894 1.053-1.704 2.035-1.302 7.163 2.935 2.662 2.2 5.343 4 5.957 4 1.158 0 3.01 3.92 7.065 14.944 1.303 3.544 3.248 7.379 4.322 8.522s3.115 4.993 4.535 8.556c1.523 3.822 2.284 5.043 1.856 2.978-.4-1.925-.67-5.525-.601-8 .109-3.939-.381-5.06-3.936-9-2.233-2.475-3.738-3.6-3.345-2.5.394 1.1.964 2.675 1.267 3.5.418 1.137.256 1.228-.669.377-.67-.617-1.344-2.642-1.496-4.5-.152-1.857-1.469-5.127-2.927-7.266s-2.651-4.367-2.651-4.95c0-1.427.896-.327 5.45 6.697 2.09 3.221 5.27 6.725 7.067 7.785 3.747 2.211 4.825 5.012 3.255 8.458-1.38 3.03.53 14.606 3.31 20.06 1.055 2.07 1.918 4.372 1.918 5.116 0 .745 2.574 3.912 5.72 7.039 6.804 6.76 11.135 12.25 14.69 18.616 1.437 2.574 3.582 5.991 4.767 7.593 1.378 1.864 2.32 4.927 2.617 8.505.409 4.93.87 5.909 3.904 8.28 1.892 1.48 4.08 3.896 4.86 5.37.781 1.473 2.257 2.944 3.28 3.269 1.022.324 2.371 1.715 2.998 3.09.627 1.376 2.27 2.931 3.652 3.457 2.971 1.13 3.412 2.425.512 1.504-1.147-.364-2-.18-2 .433 0 .587.45 1.067 1 1.067s.887.558.75 1.24c-.163.806.729 1.128 2.553.921 1.542-.175 3.527.28 4.413 1.01 1.36 1.124 1.533 1.097 1.118-.17-.27-.826-1.468-1.644-2.662-1.82-1.195-.176-2.172-.718-2.172-1.206 0-.487 1.772-.26 3.939.504 2.553.9 5.914 1.186 9.552.81 5.328-.55 5.784-.414 8.97 2.674 1.846 1.789 4.855 3.56 6.687 3.934 2.032.415 3.778 1.577 4.476 2.977.63 1.262 1.611 2.762 2.182 3.332.57.571.776 1.77.456 2.666s-.212 1.294.239.885 1.481.2 2.29 1.355c1.345 1.921 2.08 2.042 8.66 1.425l7.191-.674 1.18 3.935c.647 2.164 1.185 4.782 1.194 5.818.01 1.037 2.085 3.684 4.613 5.884 7.272 6.33 8.486 7.796 9.957 12.025 1.835 5.271 1.92 4.979-2.168 7.391-3.283 1.938-4.993 2.107-20.5 2.032-16.18-.077-16.918-.167-16.918-2.065" style="opacity:1;fill:#b9b9b9;fill-opacity:1;fill-rule:nonzero;stroke:none;stroke-width:2;stroke-linejoin:miter;stroke-miterlimit:4;stroke-dasharray:none;stroke-opacity:1"/><path d="M642.353 436.854c-.37-.598-.171-1.588.441-2.2.817-.817 1.113-.528 1.113 1.087q-.001 3.623-1.554 1.113" style="opacity:1;fill:#00c100;fill-opacity:1;fill-rule:nonzero;stroke:none;stroke-width:2;stroke-linejoin:miter;stroke-miterlimit:4;stroke-dasharray:none;stroke-opacity:1"/></g><g style="fill:#00c100;fill-opacity:1;stroke:none;stroke-width:2;stroke-linejoin:miter;stroke-miterlimit:4;stroke-dasharray:none;stroke-opacity:1"><path d="M919.473 551.691c-.306-2.337-1.264-13.25-2.13-24.25s-2.217-24.157-3.004-29.239c-.788-5.081-1.432-9.456-1.432-9.721s3.333-2.857 7.407-5.76c10.078-7.184 43.598-32.423 46.171-34.766 3.385-3.083 6.472-15.408 5.553-22.165l-.77-5.65 3.762-.602c2.07-.331 4.04-1.05 4.379-1.6 1.265-2.047-.575-2.71-5.23-1.884-3.318.59-6.296.432-9.772-.516l-5-1.364 6.5.091c3.575.05 9.05-.537 12.166-1.305 5.563-1.37 5.739-1.347 9.728 1.293 2.235 1.478 4.712 2.688 5.505 2.688 1.042 0 1.642 1.871 2.164 6.743 1.135 10.6-1.208 16.74-9.88 25.888-2.017 2.128-3.946 5.332-4.287 7.12-.34 1.787-.984 3.25-1.43 3.25-1.688 0-3.063 7.08-2.56 13.186.286 3.473.279 5.526-.016 4.563-.921-3.004-2.273-1.934-3.79 3-.803 2.613-1.492 3.963-1.53 3-.039-.962-.52-1.75-1.07-1.75-1.463 0-1.22 2.573.367 3.89 1.042.865 1.675.764 2.66-.423.712-.857 1.896-1.326 2.633-1.043.765.293 1.34-.152 1.34-1.038 0-.854.562-1.363 1.25-1.132 2.931.987-1.404 11.11-4.476 10.452-1.589-.34-3.144 2.89-2.362 4.909.691 1.783.8 1.79 2.02.135.708-.962 2.251-1.75 3.428-1.75 2.65 0 2.672.468.14 3-1.345 1.345-2.02 3.393-2.06 6.25-.033 2.338-.468 6.5-.967 9.25-.5 2.75-1.42 8.6-2.045 13-1.027 7.23-2.928 12.554-2.928 8.2 0-.935-.45-1.7-1-1.7s-.927-.337-.839-.75c.343-1.592-2.175-6.25-3.386-6.265-3.25-.039-3.741-1.447-2.241-6.431 1.674-5.562 1.897-9.554.533-9.554-.513 0-1.21.877-1.55 1.95-.341 1.071-1.52 2.234-2.62 2.583-1.467.466-1.725.97-.965 1.886 1.622 1.954-1.617 9.112-4.79 10.586-1.453.675-3.29 1.545-4.083 1.933-.792.388-1.868 2.023-2.392 3.634s-1.846 4.204-2.938 5.763-2.736 4.932-3.653 7.495c-1.84 5.143-4.134 6.333-7.076 3.67-2.834-2.564-5.445-1.55-5.813 2.259-.286 2.953-.614 3.241-3.69 3.241-3.216 0-3.4-.199-3.93-4.25" style="opacity:1;fill:#b9b9b9;fill-opacity:1;fill-rule:nonzero;stroke:none;stroke-width:2;stroke-linejoin:miter;stroke-miterlimit:4;stroke-dasharray:none;stroke-opacity:1"/><path d="M978.407 493.941c-.34-.55-.142-1 .44-1 .583 0 1.06.45 1.06 1s-.199 1-.441 1c-.243 0-.72-.45-1.06-1M991.316 456.566c-.865-2.255 1.522-8.682 3.442-9.268.907-.276 2.436-.924 3.399-1.438 2.318-1.24 2.173-.427-1.073 6.008-2.882 5.715-4.783 7.263-5.768 4.698M996.907 427.5c0-.857.45-1.559 1-1.559s1 .424 1 .941c0 .518-.45 1.22-1 1.56s-1-.084-1-.942M996.907 419.941c0-.55.198-1 .44-1 .244 0 .72.45 1.06 1s.141 1-.441 1-1.06-.45-1.06-1" style="opacity:1;fill:#b9b9b9;fill-opacity:1;fill-rule:nonzero;stroke:none;stroke-width:2;stroke-linejoin:miter;stroke-miterlimit:4;stroke-dasharray:none;stroke-opacity:1"/></g><g style="fill:#00c100;fill-opacity:1;stroke:none;stroke-width:2;stroke-linejoin:miter;stroke-miterlimit:4;stroke-dasharray:none;stroke-opacity:1"><path d="M378.937 462.303c-.017-.627-1.605-1.434-3.53-1.796-1.925-.36-3.486-.973-3.468-1.36.017-.388 2.281-2.956 5.031-5.706 3.754-3.754 4.87-5.532 4.477-7.137-.287-1.176-.125-4.262.36-6.859.738-3.95.594-5.01-.884-6.487-.971-.972-2.179-1.935-2.684-2.142-.504-.206-1.947-2.062-3.206-4.125-1.905-3.12-2.024-3.75-.708-3.75 2.003 0 2.051-2.365.082-4-1.26-1.045-1.51-.865-1.562 1.128-.083 3.198-2.345-4.344-4.388-14.628-.873-4.4-1.857-9.012-2.186-10.25-.357-1.346-.149-2.25.52-2.25.613 0 1.116 1.151 1.116 2.558 0 2.39.278 2.537 4.25 2.25 3.197-.231 4.152-.68 3.854-1.808-.217-.825-.856-3.123-1.419-5.108-.884-3.12-.717-4.039 1.24-6.786 1.244-1.747 2.03-3.78 1.746-4.52-1.29-3.36 3.572-4.492 10.446-2.432 3.348 1.003 3.924 1.622 4.422 4.75.314 1.978.73 4.384.923 5.347.198.986-.75 2.617-2.169 3.733-4.696 3.694-.435 6.906 4.539 3.422 3.233-2.265 7.168-1.117 7.168 2.09 0 3.404 4.056 5.92 8.407 5.213l3.37-.547-1.377 5.17c-1.976 7.421-1.767 8.944 1.678 12.231 2.904 2.772 3.04 3.236 2.422 8.232-.599 4.84-.442 5.463 1.829 7.25 4.33 3.406.66 8.626-4.226 6.01-1.084-.58-2.226-1.055-2.537-1.055-1.23 0-.475 5.948.934 7.358 1.868 1.868 1.896 3.07.105 4.556-.768.637-1.7 2.777-2.07 4.756l-.676 3.599-3.757-3.67c-4.85-4.736-9.849-5.73-13.676-2.72-1.482 1.167-3.648 2.114-4.81 2.106-1.255-.01-3.63 1.721-5.836 4.25-2.046 2.346-3.734 3.753-3.75 3.127M350.366 435.875c-.92-1.49.147-2.299 2.061-1.564.884.339 1.327 1.07.984 1.623-.81 1.312-2.215 1.284-3.045-.06M342.922 432.191c.049-2.385 2.745-3.73 6.743-3.365 1.008.093 1.01.513.01 2.115-1.191 1.908-6.787 2.944-6.753 1.25M336.108 423.62c-1.542-4.262-1.547-4.227.732-4.399 2.215-.166 3.515 1.138 4.984 5.003.97 2.552.864 2.717-1.74 2.717-2.235 0-3.009-.646-3.976-3.32M329.907 415.882c0-1.132.45-1.78 1-1.44s1 1.266 1 2.058c0 .793-.45 1.441-1 1.441s-1-.926-1-2.059" style="opacity:1;fill:#b9b9b9;fill-opacity:1;fill-rule:nonzero;stroke:none;stroke-width:2;stroke-linejoin:miter;stroke-miterlimit:4;stroke-dasharray:none;stroke-opacity:1"/></g><g style="fill:#00c100;fill-opacity:1;stroke:none;stroke-width:2;stroke-linejoin:miter;stroke-miterlimit:4;stroke-dasharray:none;stroke-opacity:1"><g style="fill:#00c100;fill-opacity:1;stroke:none;stroke-width:2;stroke-linejoin:miter;stroke-miterlimit:4;stroke-dasharray:none;stroke-opacity:1"><path d="M225.915 372.45c-1.517-1.614-2.594-4.342-3.06-7.75-.396-2.892-2.008-7.912-3.584-11.155-2.342-4.823-3.756-6.389-7.764-8.597-3.123-1.721-5.555-3.978-6.708-6.226-2.62-5.106-16.34-18.621-19.633-19.34-4.333-.947-8.26-2.607-8.26-3.492 0-.445 1.463-.405 3.25.09l3.25.897-2.75-2.42c-1.512-1.33-2.75-3.264-2.75-4.297 0-2.035-3.876-2.567-5.234-.719-.404.55-.756-.125-.782-1.5-.025-1.375-.707-3.373-1.515-4.44s-1.521-2.868-1.586-4c-.083-1.447-.346-1.167-.882.94-.72 2.827-.774 2.856-.952.5-.172-2.284-.256-2.328-.977-.5-.688 1.747-.88 1.588-1.51-1.258-.398-1.793-1.137-3.004-1.642-2.691-.506.312-.92-.134-.92-.992 0-.857.507-1.446 1.126-1.309.619.138 1.352-.375 1.63-1.139.309-.85.067-1.118-.625-.69-1.58.975-1.425-.25.87-6.92 1.1-3.198 2-6.643 2-7.657s.505-1.844 1.122-1.844c.776 0 .738-.463-.122-1.5s-.898-1.5-.123-1.5c.693 0 1.069-1.82.981-4.75l-.142-4.75-.716 4c-.71 3.966-.718 3.953-.902-1.5-.231-6.825-2.257-14.78-3.646-14.317-.572.19-1.618-1.254-2.326-3.21-1.007-2.784-1.692-3.428-3.155-2.963-1.118.355-2.604-.13-3.7-1.208-1.008-.991-3.098-2.463-4.645-3.27-1.547-.808-2.32-1.633-1.72-1.834 1.646-.548 1.314-2.198-.441-2.198-2.456 0-6.392-3.026-5.832-4.485.281-.734-.224-2.757-1.124-4.496-1.355-2.622-1.412-3.43-.33-4.735 1.146-1.38 1.002-1.477-1.187-.795-2.416.753-2.438.717-.742-1.184 1.775-1.99 2.42-6.305.942-6.305-.444 0-1.588 1.77-2.542 3.933-1.67 3.783-1.851 3.893-4.754 2.881-1.929-.672-2.827-1.55-2.489-2.433.303-.788-.1-1.38-.938-1.38-.808 0-1.47.81-1.47 1.8s-.504 2.304-1.12 2.921c-1.275 1.275-4.163.547-3.31-.833.307-.497-.137-1.17-.985-1.495-.85-.326-2.49-2.122-3.645-3.993-1.42-2.298-2.86-3.4-4.44-3.4-1.578 0-3.018-1.103-4.438-3.401-2.216-3.586-4.217-4.86-6.346-4.044-2.37.91-5.713-3.362-5.747-7.345-.038-4.437-1.539-6.648-5.118-7.539-1.745-.434-3.008-1.686-3.698-3.666-.576-1.653-1.662-3.006-2.412-3.006-1.782 0-6.004-5.719-4.78-6.475 1.26-.779 4.762-.085 9.439 1.869 4.786 2 8.636 2.047 11.16.138 2.65-2.004 3.44-1.889 3.44.5 0 1.19.935 2.386 2.25 2.883 2.495.943 4.096.452 3.208-.984-.316-.512.126-.93.984-.93.857 0 1.559-.46 1.559-1.02 0-.588-1.06-.753-2.511-.388-2.117.53-2.404.35-1.827-1.155.533-1.387.31-1.64-.998-1.139-1.336.513-1.217.013.577-2.426 2.077-2.825 2.285-2.903 2.578-.974.398 2.612.441 2.62 23.874 4.74 10.557.955 18.986 2.072 18.732 2.483-.988 1.598 4.906 11.998 7.584 13.383 2.928 1.514 6.819 8.658 7.711 14.16.385 2.372 1.468 3.84 3.89 5.268 2.91 1.717 3.28 2.37 2.773 4.903-.335 1.676-.115 3.212.516 3.602.606.374 1.111 2.791 1.123 5.371.025 5.29 3.035 10.523 4.953 8.613.776-.774.508-1.809-.946-3.658-2-2.541-2.884-9.764-1.196-9.764 1.56 0 7.2 7.918 7.81 10.964.334 1.67 1.225 3.036 1.981 3.036.893 0 1.36 1.14 1.332 3.25-.06 4.589 1.105 11.03 2.253 12.462.636.793.556 2.47-.232 4.858-1.109 3.36-.94 4.191 2.15 10.548 1.846 3.795 4.034 7.116 4.864 7.38.83.263 1.555 1.496 1.612 2.74.29 6.397 1.711 11.552 4.382 15.892 3.7 6.014 4.61 9.45 3.01 11.377-.875 1.053-1.02 3.429-.506 8.231.9 8.414 3.321 12.23 7.829 12.341 1.75.044 2.62.306 1.932.584-1.978.798-1.454 2.337.795 2.337 1.757 0 1.966-.458 1.48-3.25-.313-1.787-.14-3.9.383-4.695.762-1.157 1.962-.385 6.022 3.872 2.788 2.924 5.07 5.936 5.07 6.695 0 .804 1.042 1.378 2.5 1.378 1.916 0 2.5.52 2.5 2.221 0 1.222.562 4.676 1.25 7.676 1.015 4.43 1.851 5.81 4.449 7.348 5.402 3.196 5.582 12 .358 17.505-1.174 1.238-2.776 2.25-3.56 2.25s-3.441 1.125-5.904 2.5-4.65 2.5-4.861 2.5-1.437-1.12-2.724-2.49M234.226 326.2c-1.53-4.885-.926-5.303 1.623-1.121 2.378 3.9 2.537 4.862.803 4.862-.69 0-1.783-1.683-2.426-3.74M173.562 317.113c-1.836-2.029-2.113-3.172-.77-3.172.487 0 1.622 1.125 2.523 2.5 1.898 2.897.682 3.363-1.753.672" style="opacity:1;fill:#b9b9b9;fill-opacity:1;fill-rule:nonzero;stroke:none;stroke-width:2;stroke-linejoin:miter;stroke-miterlimit:4;stroke-dasharray:none;stroke-opacity:1"/><path d="M218.592 315.408c-2.219-4.654-2.142-4.832.815-1.876 1.375 1.375 2.5 3.155 2.5 3.955 0 2.554-1.577 1.565-3.315-2.08M167.406 310.264c-2.892-2.399-2.91-2.463-.5-1.798 2.987.824 5.533 3.028 4.346 3.762-.465.288-2.196-.596-3.846-1.964M161.912 306.448c-.704-.849-1.386-2.547-1.515-3.775-.382-3.626-.425-3.694-1.99-3.093-1.695.65-1.947-.819-.584-3.402.504-.955 1.553-3.312 2.33-5.237.779-1.925 1.943-4.625 2.587-6 1.086-2.318 1.126-2.245.549 1-.343 1.925-1.288 4.8-2.1 6.389-1.138 2.226-1.225 3.44-.38 5.297.604 1.325 1.098 3.422 1.098 4.661 0 1.24.532 2.786 1.183 3.437s.94 1.426.643 1.724c-.298.297-1.117-.153-1.821-1.001M213.097 301.362c-1.205-.844-2.19-2.036-2.19-2.649s-.747-1.94-1.66-2.949c-2.101-2.321-1.328-3.149 1.823-1.95 1.598.607 2.842 2.238 3.606 4.726.641 2.09 1.041 3.925.888 4.078-.153.152-1.263-.413-2.467-1.256M209.907 287c0-.517.45-1.219 1-1.559s1 .084 1 .941c0 .858-.45 1.56-1 1.56s-1-.424-1-.942M163.977 279.25c.039-.995.457-2.709.93-3.809.724-1.685.87-1.498.93 1.191.038 1.755-.38 3.47-.93 3.81s-.968-.197-.93-1.192M208.243 273.374c-.331-.862-.15-2.018.401-2.57q1.003-1.007 1.494 1.567c.533 2.788-.916 3.555-1.895 1.003M199.907 270.441c0-.825.45-1.5 1-1.5s1 .675 1 1.5-.45 1.5-1 1.5-1-.675-1-1.5M194.907 262.892c0-2.175 3.11-6.95 4.526-6.95 2.268 0 1.752 2.63-1.072 5.454-2.791 2.792-3.454 3.079-3.454 1.496" style="opacity:1;fill:#b9b9b9;fill-opacity:1;fill-rule:nonzero;stroke:none;stroke-width:2;stroke-linejoin:miter;stroke-miterlimit:4;stroke-dasharray:none;stroke-opacity:1"/></g><path d="M171.907 210.382c0-.857.45-1.28 1-.94s1 1.04 1 1.558-.45.941-1 .941-1-.701-1-1.559" style="opacity:1;fill:#b9b9b9;fill-opacity:1;fill-rule:nonzero;stroke:none;stroke-width:2;stroke-linejoin:miter;stroke-miterlimit:4;stroke-dasharray:none;stroke-opacity:1"/></g><path d="M152.907 157.441c-1.596-1.922.032-1.942 2.559-.031 1.63 1.233 1.68 1.473.313 1.5-.895.017-2.187-.644-2.872-1.469" style="fill:#b9b9b9;fill-opacity:1;stroke:none;stroke-opacity:1;opacity:1;fill-rule:nonzero;stroke-linejoin:miter;stroke-width:2;stroke-miterlimit:4;stroke-dasharray:none"/><g style="fill:#00c100;fill-opacity:1;stroke:none;stroke-opacity:1;stroke-linejoin:miter;stroke-width:2;stroke-miterlimit:4;stroke-dasharray:none"><path d="M130.633 176.952c-9.226-.949-16.994-1.945-17.263-2.214-.27-.27.192-2.12 1.024-4.112 1.342-3.21 1.343-3.557.013-3.046-1.664.638-2.078-1.643-.578-3.189.507-.522 1.219-2.565 1.581-4.538.576-3.135.273-3.953-2.393-6.47-1.68-1.585-3.965-5.002-5.08-7.593s-2.89-4.987-3.945-5.322-2.417-1.827-3.027-3.317c-3.02-7.38-10.146-16.21-13.081-16.21-.907 0-3.25-1.687-5.207-3.75s-5.406-5.32-7.664-7.241c-3.42-2.909-4.106-4.1-4.106-7.143 0-2.35-.544-3.86-1.525-4.237-.965-.37-1.355-1.417-1.063-2.857 1.629-8.013 1.536-10.45-.479-12.613-1.12-1.201-1.78-2.598-1.468-3.102.312-.505.11-1.201-.449-1.546-.566-.35-1.016.31-1.016 1.49 0 1.164-.45 1.84-1 1.5s-1-3.727-1-7.526c0-6.613-2.205-13.975-4.185-13.975-.448 0-.815-2.256-.815-5.015 0-3.759-.775-6.389-3.095-10.5-1.703-3.016-3.503-5.736-4-6.044-.498-.307-.905-2.017-.905-3.8s-.533-3.773-1.183-4.424c-.651-.65-.869-1.498-.484-1.883s1.233-.168 1.884.483c1.747 1.747 2.783 1.443 2.783-.817 0-1.11-.667-2-1.5-2-.825 0-1.5-.468-1.5-1.041s-.87-1.975-1.932-3.115-2.225-3.934-2.583-6.209-1.74-6.264-3.069-8.866c-1.329-2.603-2.416-5.19-2.416-5.75 0-1.406 9.095-1.29 38.5.496 29.295 1.778 35.5 2.366 35.5 3.367 0 .405-2.26 3.082-5.024 5.949-3.905 4.051-4.827 5.597-4.14 6.94 2.814 5.51 1.677 14.732-1.663 13.481-1.51-.565-1.527-.441-.173 1.268a58 58 0 0 0 3.25 3.687c1.864 1.91 2.282 4.781.924 6.343-1.577 1.814-3.279 8.977-3.315 13.95-.054 7.518.134 8.56 1.64 9.139 1.127.432 1.3 3.585.928 16.972-.39 14.048-.236 16.525 1.058 17.022.833.32 1.515 1.176 1.515 1.903s.719 2.04 1.597 2.919c.878.878 1.348 2.246 1.044 3.04-.57 1.484.78 2.786 3.284 3.165.784.118 1.873 1.015 2.42 1.994.548.978 1.989 2.77 3.201 3.984 1.213 1.213 3.27 3.699 4.57 5.525s3.848 4.623 5.663 6.217 3.21 3.622 3.101 4.509c-.109.886.16 2.897.596 4.469.526 1.89.397 3.103-.38 3.583-.866.535-.893 1.463-.103 3.54 1.02 2.686 1.134 2.728 2.457.919 1.585-2.167 3.05-1.235 3.05 1.94 0 1.494.617 2.16 2 2.16 1.665.001 2.024.716 2.145 4.271.17 5.049 1.447 6.871 5.425 7.745 2.481.545 3.029 1.25 3.562 4.586.347 2.169 1.022 4.184 1.5 4.48.477.295.868 2.31.868 4.477 0 3.911-.029 3.94-3.75 3.81-2.063-.073-11.298-.909-20.524-1.858M75.14 169.492c-3.573-1.973-3.686-2.428-.872-3.498 1.97-.749 2.643-1.707 2.654-3.778.02-3.535 1.64-6.472 2.342-4.247 1.37 4.337 1.474 6.79.415 9.722-1.294 3.583-1.306 3.588-4.54 1.801M2.903 148.941c-.037-1.375-.71-3.625-1.496-5-1.876-3.281-1.876-7.443 0-9 1.277-1.06 1.5-.793 1.5 1.795 0 1.671.46 3.192 1.024 3.38 1.84.614 2.247 7.159.58 9.325-1.51 1.962-1.542 1.952-1.608-.5" style="fill:#b9b9b9;fill-opacity:1;stroke:none;stroke-opacity:1;opacity:1;fill-rule:nonzero;stroke-linejoin:miter;stroke-width:2;stroke-miterlimit:4;stroke-dasharray:none"/><path d="M143.884 139.834a800 800 0 0 1-5.872-6.393c-3.101-3.447-4.62-11.365-2.347-12.237 1.649-.633 6.243 4.438 6.103 6.737-.205 3.363.264 4 2.938 4 2.592 0 2.77.25 2.404 3.387-.217 1.862.134 4.375.782 5.585 2.107 3.937.156 3.412-4.008-1.08" style="fill:#b9b9b9;fill-opacity:1;stroke:none;stroke-opacity:1;opacity:1;fill-rule:nonzero;stroke-linejoin:miter;stroke-width:2;stroke-miterlimit:4;stroke-dasharray:none"/></g><g style="fill:#b9b9b9;fill-opacity:1;stroke:none;stroke-opacity:1;stroke-linejoin:miter;stroke-width:2;stroke-miterlimit:4;stroke-dasharray:none"><g style="fill:#b9b9b9;fill-opacity:1;stroke:none;stroke-opacity:1;stroke-linejoin:miter;stroke-width:2;stroke-miterlimit:4;stroke-dasharray:none"><path d="M162.513 156.525c.334-.871 1.047-1.584 1.584-1.584 1.315 0 .492 2.273-1.003 2.771-.731.244-.954-.213-.58-1.187M167.66 153.496c-4.84-2.525-4.873-2.587-2.77-5.26 1.109-1.41 2.017-3.842 2.017-5.404 0-3.382 4.666-6.572 6.583-4.502 2.128 2.298 2.457 8.866.64 12.813-1.924 4.183-2.536 4.405-6.47 2.353" style="fill:#b9b9b9;fill-opacity:1;stroke:none;stroke-opacity:1;opacity:1;fill-rule:nonzero;stroke-linejoin:miter;stroke-width:2;stroke-miterlimit:4;stroke-dasharray:none"/></g><g style="fill:#b9b9b9;fill-opacity:1;stroke:none;stroke-opacity:1;stroke-linejoin:miter;stroke-width:2;stroke-miterlimit:4;stroke-dasharray:none"><path d="M258.474 247.145c.598-4.508.457-5.061-1.453-5.667-2.907-.923-4.68-4.276-2.494-4.714 1.377-.275 1.291-.688-.587-2.823-1.545-1.755-2.033-1.971-1.64-.726.491 1.549.28 1.625-1.666.604-2.214-1.162-2.216-1.156-.322.977 1.048 1.18 1.412 2.145.809 2.145s-1.393-.48-1.756-1.068c-.363-.587-1.218-.854-1.9-.592-.682.261-1.743.164-2.358-.216-1.606-.993-6.369-12.124-5.187-12.124a.995.995 0 0 0 .987-.997c0-1.277-6.335-3.935-7.002-2.937-.277.413-3.202-.54-6.5-2.116-3.3-1.578-5.605-2.886-5.126-2.909s.305-.725-.39-1.562c-.694-.836-1.412-3.195-1.596-5.241s-.796-3.874-1.36-4.062c-1.258-.42-1.377-4.176-.132-4.176.492 0 .87-1.012.839-2.25-.03-1.237.23-2.925.579-3.75.403-.952-.333-2.204-2.015-3.429-2.294-1.671-2.562-1.704-2.003-.247.6 1.563.47 1.568-1.824.065-1.512-.99-2.47-2.567-2.47-4.063 0-1.478-.422-2.183-1.068-1.783-.588.363-.854 1.218-.593 1.9.262.681.058 1.873-.452 2.648-.758 1.151-1.29.977-2.907-.951-1.09-1.299-1.98-3.002-1.98-3.786 0-1.1-.442-1.187-1.94-.386-2.301 1.232-2.412 1.076-4.153-5.849-1.24-4.93-1.71-5.534-5.63-7.214-2.494-1.069-4.277-2.502-4.277-3.436 0-.881-1.125-3.077-2.5-4.88-2.869-3.761-3.177-5.589-.941-5.589.857 0 1.262-.48.899-1.068-.363-.587-1.264-.836-2.002-.553-1.373.527-7.33-5.47-7.613-7.663-.086-.669-.243-2.422-.35-3.896-.33-4.574-2.538-8.685-4.84-9.013-1.84-.262-2.153-.962-2.153-4.807 0-3.53-.737-5.523-3.42-9.25-1.88-2.612-3.75-4.75-4.155-4.75s-.777-3.784-.827-8.409c-.103-9.51-.524-11.207-2.939-11.839-1.067-.279-2.184-2.322-2.992-5.477-.71-2.768-2.837-7.434-4.728-10.37-2.44-3.785-3.44-6.487-3.44-9.292 0-2.345-.703-4.733-1.728-5.866-1.64-1.81-1.64-1.961 0-2.878 2.271-1.271 2.181-2.48-.385-5.16l-2.113-2.209.68 2.25c.763 2.519-.898 3.139-1.839.687-.33-.86-.962-1.34-1.405-1.066s-3.934-.26-7.757-1.186c-6.515-1.579-6.933-1.846-6.654-4.252.225-1.944-.329-2.853-2.278-3.742-1.417-.645-2.851-1.89-3.187-2.766-.384-1-.856-1.196-1.27-.528-.846 1.37-8.063-3.428-8.063-5.36 0-.765-1.12-2.272-2.488-3.349-2.19-1.722-2.365-2.312-1.459-4.91 1.024-2.937.794-8.314-.487-11.384-.414-.994.209-2.596 1.632-4.198l2.302-2.591 16.5 8.58a3850 3850 0 0 1 31 16.323c62.187 33.213 61.107 32.685 68 33.263 27.578 2.312 56.05 4.886 58.76 5.312 2.835.445 3.128.759 2.247 2.404-.557 1.04-.628 2.13-.16 2.42.47.29 1.422 5.38 2.117 11.31.694 5.93 1.946 12.808 2.781 15.283 1.204 3.568 1.39 7.297.895 18-.748 16.192-1.297 19.128-3.51 18.767-1.225-.2-1.6.479-1.506 2.733.109 2.611.203 15.286.209 28 0 2.2.151 4.9.334 6 .31 1.868-.134 1.978-6.724 1.666-8.9-.422-9.97.522-8.423 7.422.593 2.647 2.543 7.31 4.334 10.362 5.796 9.879 7.172 14.537 5.552 18.798-.987 2.596 1.202 9.252 3.043 9.252.578 0 1.05 1.287 1.05 2.86 0 3.875-6.494 11.106-15.02 16.723-3.687 2.43-6.991 4.417-7.342 4.417-.35 0-.637-1.162-.637-2.583 0-3.188-2.211-2.758-3 .583-.305 1.294-1.127 2.543-1.825 2.775-.97.324-1.114-.756-.608-4.571" style="fill:#b9b9b9;fill-opacity:1;stroke:none;stroke-opacity:1;opacity:1;fill-rule:nonzero;stroke-linejoin:miter;stroke-width:2;stroke-miterlimit:4;stroke-dasharray:none"/><path d="M111.067 47.394c-2.588-5.68-.649-7.226 3.392-2.703 1.77 1.981 2.268 2.215 1.782.836-.466-1.323-.313-1.69.496-1.19 1.588.98 1.47 2.161-.401 4.033-2.256 2.255-3.939 1.943-5.269-.976" style="fill:#b9b9b9;fill-opacity:1;stroke:none;stroke-opacity:1;opacity:1;fill-rule:nonzero;stroke-linejoin:miter;stroke-width:2;stroke-miterlimit:4;stroke-dasharray:none"/></g></g></g><g style="font-size:20px;fill:#b9b9b9;fill-opacity:1"><text xml:space="preserve" x="468.151" y="425.564" style="font-size:20px;font-style:normal;font-weight:400;fill:#b9b9b9;fill-opacity:1;stroke:none;stroke-width:1px;stroke-linecap:butt;stroke-linejoin:miter;stroke-opacity:1;font-family:Arial Rounded MT Bold" transform="translate(1.401 -2)"><tspan x="468.151" y="425.564">1</tspan></text><text xml:space="preserve" x="79.495" y="96.941" style="font-size:20px;font-style:normal;font-weight:400;fill:#b9b9b9;fill-opacity:1;stroke:none;stroke-width:1px;stroke-linecap:butt;stroke-linejoin:miter;stroke-opacity:1;font-family:Arial Rounded MT Bold" transform="translate(1.401 -2)"><tspan x="79.495" y="96.941">2</tspan></text><text xml:space="preserve" x="174.633" y="299.6" style="font-size:20px;font-style:normal;font-weight:400;fill:#b9b9b9;fill-opacity:1;stroke:none;stroke-width:1px;stroke-linecap:butt;stroke-linejoin:miter;stroke-opacity:1;font-family:Arial Rounded MT Bold" transform="translate(1.401 -2)"><tspan x="174.633" y="299.6">3</tspan></text><text xml:space="preserve" x="872.709" y="534.97" style="font-size:20px;font-style:normal;font-weight:400;fill:#b9b9b9;fill-opacity:1;stroke:none;stroke-width:1px;stroke-linecap:butt;stroke-linejoin:miter;stroke-opacity:1;font-family:Arial Rounded MT Bold" transform="translate(1.401 -2)"><tspan x="872.709" y="534.97">4</tspan></text><text xml:space="preserve" x="807.534" y="626.697" style="font-size:20px;font-style:normal;font-weight:400;fill:#b9b9b9;fill-opacity:1;stroke:none;stroke-width:1px;stroke-linecap:butt;stroke-linejoin:miter;stroke-opacity:1;font-family:Arial Rounded MT Bold" transform="translate(1.401 -2)"><tspan x="807.534" y="626.697">5</tspan></text><text xml:space="preserve" x="356.401" y="195.626" style="font-size:20px;font-style:normal;font-weight:400;fill:#b9b9b9;fill-opacity:1;stroke:none;stroke-width:1px;stroke-linecap:butt;stroke-linejoin:miter;stroke-opacity:1;font-family:Arial Rounded MT Bold" transform="translate(1.401 -2)"><tspan x="356.401" y="195.626">6</tspan></text><text xml:space="preserve" x="474.453" y="246.7" style="font-size:20px;font-style:normal;font-weight:400;fill:#b9b9b9;fill-opacity:1;stroke:none;stroke-width:1px;stroke-linecap:butt;stroke-linejoin:miter;stroke-opacity:1;font-family:Arial Rounded MT Bold" transform="translate(1.401 -2)"><tspan x="474.453" y="246.7">7</tspan></text><text xml:space="preserve" x="204.464" y="143.859" style="font-size:20px;font-style:normal;font-weight:400;fill:#b9b9b9;fill-opacity:1;stroke:none;stroke-width:1px;stroke-linecap:butt;stroke-linejoin:miter;stroke-opacity:1;font-family:Arial Rounded MT Bold" transform="translate(1.401 -2)"><tspan x="204.464" y="143.859">25</tspan></text><text xml:space="preserve" x="372.618" y="316.476" style="font-size:20px;font-style:normal;font-weight:400;fill:#b9b9b9;fill-opacity:1;stroke:none;stroke-width:1px;stroke-linecap:butt;stroke-linejoin:miter;stroke-opacity:1;font-family:Arial Rounded MT Bold" transform="translate(1.401 -2)"><tspan x="372.618" y="316.476">9</tspan></text><text xml:space="preserve" x="654.776" y="617.728" style="font-size:20px;font-style:normal;font-weight:400;fill:#b9b9b9;fill-opacity:1;stroke:none;stroke-width:1px;stroke-linecap:butt;stroke-linejoin:miter;stroke-opacity:1;font-family:Arial Rounded MT Bold" transform="translate(1.401 -2)"><tspan x="654.776" y="617.728">19</tspan></text><text xml:space="preserve" x="536.08" y="585.905" style="font-size:20px;font-style:normal;font-weight:400;fill:#b9b9b9;fill-opacity:1;stroke:none;stroke-width:1px;stroke-linecap:butt;stroke-linejoin:miter;stroke-opacity:1;font-family:Arial Rounded MT Bold" transform="translate(1.401 -2)"><tspan x="536.08" y="585.905">11</tspan></text><text xml:space="preserve" x="480.08" y="527.905" style="font-size:20px;font-style:normal;font-weight:400;fill:#b9b9b9;fill-opacity:1;stroke:none;stroke-width:1px;stroke-linecap:butt;stroke-linejoin:miter;stroke-opacity:1;font-family:Arial Rounded MT Bold" transform="translate(1.401 -2)"><tspan x="480.08" y="527.905">15</tspan></text><text xml:space="preserve" x="402.08" y="491.905" style="font-size:20px;font-style:normal;font-weight:400;fill:#b9b9b9;fill-opacity:1;stroke:none;stroke-width:1px;stroke-linecap:butt;stroke-linejoin:miter;stroke-opacity:1;font-family:Arial Rounded MT Bold" transform="translate(1.401 -2)"><tspan x="402.08" y="491.905">13</tspan></text><text xml:space="preserve" x="502.339" y="467.697" style="font-size:20px;font-style:normal;font-weight:400;fill:#b9b9b9;fill-opacity:1;stroke:none;stroke-width:1px;stroke-linecap:butt;stroke-linejoin:miter;stroke-opacity:1;font-family:Arial Rounded MT Bold" transform="translate(1.401 -2)"><tspan x="502.339" y="467.697">10</tspan></text><text xml:space="preserve" x="440.636" y="374.237" style="font-size:20px;font-style:normal;font-weight:400;fill:#b9b9b9;fill-opacity:1;stroke:none;stroke-width:1px;stroke-linecap:butt;stroke-linejoin:miter;stroke-opacity:1;font-family:Arial Rounded MT Bold" transform="translate(1.401 -2)"><tspan x="440.636" y="374.237">31</tspan></text><text xml:space="preserve" x="524.636" y="412.237" style="font-size:20px;font-style:normal;font-weight:400;fill:#b9b9b9;fill-opacity:1;stroke:none;stroke-width:1px;stroke-linecap:butt;stroke-linejoin:miter;stroke-opacity:1;font-family:Arial Rounded MT Bold" transform="translate(1.401 -2)"><tspan x="524.636" y="412.237">23</tspan></text><text xml:space="preserve" x="580.636" y="358.237" style="font-size:20px;font-style:normal;font-weight:400;fill:#b9b9b9;fill-opacity:1;stroke:none;stroke-width:1px;stroke-linecap:butt;stroke-linejoin:miter;stroke-opacity:1;font-family:Arial Rounded MT Bold" transform="translate(1.401 -2)"><tspan x="580.636" y="358.237">27</tspan></text><text xml:space="preserve" x="548.236" y="299.6" style="font-size:20px;font-style:normal;font-weight:400;fill:#b9b9b9;fill-opacity:1;stroke:none;stroke-width:1px;stroke-linecap:butt;stroke-linejoin:miter;stroke-opacity:1;font-family:Arial Rounded MT Bold" transform="translate(1.401 -2)"><tspan x="548.236" y="299.6">18</tspan></text><text xml:space="preserve" x="286.455" y="294.6" style="font-size:20px;font-style:normal;font-weight:400;fill:#b9b9b9;fill-opacity:1;stroke:none;stroke-width:1px;stroke-linecap:butt;stroke-linejoin:miter;stroke-opacity:1;font-family:Arial Rounded MT Bold" transform="translate(1.401 -2)"><tspan x="286.455" y="294.6">24</tspan></text><text xml:space="preserve" x="908.633" y="459.6" style="font-size:20px;font-style:normal;font-weight:400;fill:#b9b9b9;fill-opacity:1;stroke:none;stroke-width:1px;stroke-linecap:butt;stroke-linejoin:miter;stroke-opacity:1;font-family:Arial Rounded MT Bold" transform="translate(1.401 -2)"><tspan x="908.633" y="459.6">30</tspan></text><text xml:space="preserve" x="928.455" y="504.941" style="font-size:20px;font-style:normal;font-weight:400;fill:#b9b9b9;fill-opacity:1;stroke:none;stroke-width:1px;stroke-linecap:butt;stroke-linejoin:miter;stroke-opacity:1;font-family:Arial Rounded MT Bold" transform="translate(1.401 -2)"><tspan x="928.455" y="504.941">22</tspan></text><text xml:space="preserve" x="706.438" y="559.014" style="font-size:20px;font-style:normal;font-weight:400;fill:#b9b9b9;fill-opacity:1;stroke:none;stroke-width:1px;stroke-linecap:butt;stroke-linejoin:miter;stroke-opacity:1;font-family:Arial Rounded MT Bold" transform="translate(1.401 -2)"><tspan x="706.438" y="559.014">29</tspan></text><text xml:space="preserve" x="610.68" y="543.762" style="font-size:20px;font-style:normal;font-weight:400;fill:#b9b9b9;fill-opacity:1;stroke:none;stroke-width:1px;stroke-linecap:butt;stroke-linejoin:miter;stroke-opacity:1;font-family:Arial Rounded MT Bold" transform="translate(1.401 -2)"><tspan x="610.68" y="543.762">20</tspan></text><text xml:space="preserve" x="378.236" y="429.6" style="font-size:20px;font-style:normal;font-weight:400;fill:#b9b9b9;fill-opacity:1;stroke:none;stroke-width:1px;stroke-linecap:butt;stroke-linejoin:miter;stroke-opacity:1;font-family:Arial Rounded MT Bold" transform="translate(1.401 -2)"><tspan x="378.236" y="429.6">17</tspan></text><text xml:space="preserve" x="419.739" y="529.717" style="font-size:20px;font-style:normal;font-weight:400;fill:#b9b9b9;fill-opacity:1;stroke:none;stroke-width:1px;stroke-linecap:butt;stroke-linejoin:miter;stroke-opacity:1;font-family:Arial Rounded MT Bold" transform="translate(1.401 -2)"><tspan x="419.739" y="529.717">8</tspan></text><text xml:space="preserve" x="552.671" y="523.502" style="font-size:20px;font-style:normal;font-weight:400;fill:#b9b9b9;fill-opacity:1;stroke:none;stroke-width:1px;stroke-linecap:butt;stroke-linejoin:miter;stroke-opacity:1;font-family:Arial Rounded MT Bold" transform="translate(1.401 -2)"><tspan x="552.671" y="523.502">14</tspan></text><text xml:space="preserve" x="575.162" y="546.285" style="font-size:20px;font-style:normal;font-weight:400;fill:#b9b9b9;fill-opacity:1;stroke:none;stroke-width:1px;stroke-linecap:butt;stroke-linejoin:miter;stroke-opacity:1;font-family:Arial Rounded MT Bold" transform="translate(1.401 -2)"><tspan x="575.162" y="546.285">16</tspan></text><text xml:space="preserve" x="575.912" y="484.03" style="font-size:20px;font-style:normal;font-weight:400;fill:#b9b9b9;fill-opacity:1;stroke:none;stroke-width:1px;stroke-linecap:butt;stroke-linejoin:miter;stroke-opacity:1;font-family:Arial Rounded MT Bold" transform="translate(1.401 -2)"><tspan x="575.912" y="484.03">12</tspan></text><text xml:space="preserve" x="793.495" y="557.697" style="font-size:20px;font-style:normal;font-weight:400;fill:#b9b9b9;fill-opacity:1;stroke:none;stroke-width:1px;stroke-linecap:butt;stroke-linejoin:miter;stroke-opacity:1;font-family:Arial Rounded MT Bold" transform="translate(1.401 -2)"><tspan x="793.495" y="557.697">26</tspan></text><text xml:space="preserve" x="602.666" y="517.339" style="font-size:20px;font-style:normal;font-weight:400;fill:#b9b9b9;fill-opacity:1;stroke:none;stroke-width:1px;stroke-linecap:butt;stroke-linejoin:miter;stroke-opacity:1;font-family:Arial Rounded MT Bold" transform="translate(1.401 -2)"><tspan x="602.666" y="517.339">28</tspan></text><text xml:space="preserve" x="539.455" y="475.6" style="font-size:20px;font-style:normal;font-weight:400;fill:#b9b9b9;fill-opacity:1;stroke:none;stroke-width:1px;stroke-linecap:butt;stroke-linejoin:miter;stroke-opacity:1;font-family:Arial Rounded MT Bold" transform="translate(1.401 -2)"><tspan x="539.455" y="475.6">21</tspan></text></g></svg>
